<svg width="409" height="562" viewBox="0 0 409 562" fill="none" xmlns="http://www.w3.org/2000/svg">
<path d="M102.122 54.0924L0.590303 108.89L0.236121 155.64L0 202.39L40.1406 224.286L80.2812 246.063V367.494V488.807L141.673 525.142C175.438 545.144 203.536 561.477 204.363 561.477C205.071 561.477 233.17 545.144 266.935 525.26L328.208 489.044V367.494L328.327 246.063L368.349 224.286L408.49 202.627V155.64L408.372 108.772L307.784 54.6842C252.414 24.9773 206.37 0.359619 205.425 0.00457764C204.481 -0.350525 159.028 23.4387 102.122 54.0924ZM292.554 86.2847C340.133 111.612 378.975 132.561 378.975 133.035C378.856 133.981 206.134 227.718 204.363 227.718C202.828 227.718 33.2931 135.875 31.0499 133.745C29.9874 132.798 51.3564 120.844 116.644 86.048C164.458 60.4835 204.245 39.6532 204.953 39.8899C205.544 40.0082 244.976 60.8386 292.554 86.2847ZM160.562 289.854C183.82 302.518 203.536 312.933 204.363 312.933C205.189 312.933 225.378 302.281 249.226 289.262C273.192 276.243 293.026 265.591 293.381 265.591C293.735 265.591 293.853 278.492 293.735 294.233L293.381 322.993L248.872 348.202L204.363 373.53L159.736 348.084L115.109 322.756L114.755 293.996C114.519 268.313 114.637 265.355 116.29 266.065C117.352 266.42 137.304 277.19 160.562 289.854ZM159.618 383.235C183.466 397.319 203.655 408.8 204.481 408.8C205.307 408.8 225.732 397.083 249.698 382.762L293.381 356.842L293.735 375.424C293.853 385.602 293.853 394.479 293.499 395.189C293.263 396.017 273.074 407.853 248.636 421.7L204.363 446.91L159.736 421.464L115.109 396.136L114.755 376.371C114.637 365.482 114.873 356.724 115.345 357.079C115.936 357.316 135.77 369.151 159.618 383.235ZM159.618 456.615C183.466 470.699 203.655 482.179 204.481 482.179C205.307 482.179 225.732 470.462 249.698 456.141L293.381 430.222L293.735 445.134C293.853 453.419 293.853 460.757 293.499 461.467C293.263 462.177 273.074 474.131 248.636 487.979L204.363 513.188L159.736 487.742L115.109 462.414L114.755 446.2C114.637 437.205 114.873 430.103 115.345 430.459C115.817 430.695 135.77 442.531 159.618 456.615Z" fill="black"/>
<path d="M166.702 101.913C134.117 119.311 129.867 121.797 131.756 123.217C135.534 126.057 202.829 161.445 204.363 161.445C205.19 161.445 222.545 152.569 242.851 141.799L279.922 122.033L242.379 102.15C221.836 91.1429 204.6 82.148 204.245 82.148C203.891 82.148 187.009 91.1429 166.702 101.913Z" fill="black"/>
</svg>
