<svg width="50" height="50" viewBox="0 0 50 50" fill="none" xmlns="http://www.w3.org/2000/svg">
<path d="M20.1737 0.394005C16.5122 1.16272 14.0037 2.19441 11.0503 4.17688C5.38605 7.93953 1.44134 13.9679 0.288267 20.6031C-0.0960891 22.8081 -0.0960891 27.1776 0.288267 29.4433C2.1089 39.7804 10.5041 48.034 21.0031 49.7737C23.2485 50.1378 27.5169 50.0569 29.8635 49.5714C40.1197 47.4676 47.8878 39.4972 49.6882 29.2207C50.1535 26.4493 49.9714 21.3516 49.2836 18.8027C46.6538 9.07237 39.0071 1.99212 29.2364 0.292858C26.7482 -0.131958 22.4393 -0.0914993 20.1737 0.394005ZM23.997 4.94559C24.3409 7.85862 24.3409 7.87885 23.7745 7.87885C23.3497 7.87885 23.289 7.7777 23.1676 6.50325C22.9248 4.05551 22.8642 3.83298 22.2977 3.83298H21.792L21.9336 5.53225C22.0752 7.19105 22.0752 7.25174 21.5493 7.7777C21.2458 8.08113 20.9019 8.28343 20.7603 8.22274C20.376 8.10136 20.3355 7.4338 20.7199 7.21128C21.0233 7.04944 21.0435 6.78646 20.9221 5.04674L20.7805 3.04404L21.5493 2.96313C21.9943 2.92267 22.6619 2.88221 23.0462 2.90244L23.7542 2.92267L23.997 4.94559ZM28.0429 3.04404C29.0745 3.2261 29.3173 3.34748 29.3173 3.65092C29.3173 3.9139 29.1757 4.03528 28.8318 4.03528C28.3058 4.03528 28.2654 4.15665 28.0024 6.05821C27.7596 7.81816 27.6787 8.08113 27.3146 8.08113C27.1123 8.08113 26.91 8.04068 26.8493 7.97999C26.8089 7.9193 26.8696 7.0899 27.0112 6.09867C27.3551 3.81276 27.3753 3.89367 26.8089 3.75207C26.4447 3.67115 26.3436 3.52954 26.4245 3.2261C26.5459 2.7406 26.4245 2.76083 28.0429 3.04404ZM33.6868 4.66239C34.5162 5.04674 34.8197 5.49179 34.3949 5.75477C34.2937 5.81546 33.8689 5.69408 33.4643 5.51202C32.736 5.16812 32.7158 5.16812 32.4326 5.55247C32.028 6.09867 32.0685 6.22004 32.8574 6.54371C33.525 6.82692 33.788 7.31242 33.3834 7.55518C33.2822 7.61586 32.8979 7.53495 32.4933 7.37311C31.8257 7.0899 31.7853 7.11013 31.5628 7.59563C31.4414 7.87885 31.3402 8.12159 31.3402 8.16205C31.3402 8.20251 31.7448 8.38457 32.2505 8.56664C33.2013 8.93077 33.262 9.01168 32.9788 9.47696C32.817 9.71971 32.5944 9.67925 31.6032 9.29489C30.9559 9.03191 30.3692 8.76893 30.2681 8.68801C30.1872 8.62732 30.5311 7.53495 31.057 6.30096C32.1089 3.79253 31.9269 3.89367 33.6868 4.66239ZM17.9484 6.38187C18.7374 7.4338 19.4049 8.36435 19.4049 8.46549C19.4049 8.80939 18.7374 8.8903 18.3935 8.58687C17.8271 8.08113 16.9774 8.38457 16.9774 9.0926C16.9774 9.47696 16.8561 9.67925 16.5931 9.76017C16.1278 9.88154 16.0873 9.73994 15.7434 6.90784C15.5412 5.12766 15.5412 4.78376 15.7839 4.62193C15.9457 4.52078 16.1683 4.43987 16.2694 4.46009C16.3908 4.46009 17.1393 5.30972 17.9484 6.38187ZM38.906 6.17958C39.088 6.24027 39.1892 6.38187 39.1285 6.46279C39.0071 6.66508 39.4117 6.9483 39.8365 6.96852C40.2613 6.96852 40.3423 7.59563 39.9377 7.75747C39.2094 8.04068 37.935 6.86738 38.3193 6.2605C38.4609 6.01775 38.4812 6.01775 38.906 6.17958ZM37.8136 6.96852C38.0159 7.21128 37.9552 7.39334 37.4899 8.00022C36.2357 9.57811 36.2357 9.59833 37.7529 8.76893C39.1083 8.04068 39.2297 8.00022 39.5533 8.30366C39.8568 8.62733 39.7758 8.76893 38.4003 10.5289C37.5911 11.5808 36.9033 12.4709 36.8628 12.5113C36.8224 12.572 36.6403 12.4507 36.4582 12.2888C36.0941 11.9045 36.1346 11.8236 37.3483 10.3266L37.9147 9.63879L36.4582 10.4277C35.1029 11.156 34.9815 11.1964 34.6578 10.8728C34.3544 10.5693 34.4353 10.4277 35.8109 8.60709C36.6403 7.53494 37.3686 6.66508 37.4292 6.66508C37.5102 6.66508 37.672 6.80669 37.8136 6.96852ZM12.9923 7.93953C13.6801 8.72847 13.6801 9.47696 13.0125 10.2052L12.5068 10.7514L12.9113 11.1964C13.1541 11.4392 13.3362 11.7426 13.3362 11.864C13.3362 12.127 12.7697 12.3697 12.527 12.2281C12.2235 12.0461 9.69489 8.72847 9.69489 8.52618C9.69489 8.4048 10.1197 8.04068 10.6457 7.69678C11.738 6.96852 12.1629 7.00898 12.9923 7.93953ZM28.5081 10.2254C36.0941 12.1674 41.2121 19.7534 40.0388 27.3596C39.0476 33.8735 34.3544 38.951 28.0429 40.3469C25.676 40.8728 22.0752 40.6908 19.9107 39.9625C15.8446 38.5869 12.3247 35.3907 10.5243 31.4864C9.2903 28.7555 8.92618 24.5275 9.69489 21.5134C11.2121 15.5862 15.8851 11.1762 21.9336 9.98269C23.6531 9.63879 26.6673 9.76017 28.5081 10.2254ZM11.293 13.6644C11.3941 13.7656 10.8884 14.3522 10.7064 14.3522C10.6052 14.3522 10.059 13.9679 9.47237 13.5026L8.40021 12.6732L9.1487 13.9881C10.5445 16.4763 10.0186 16.7393 7.42921 14.8377C6.39751 14.0892 5.50742 13.4621 5.46697 13.4217C5.44674 13.4014 5.52765 13.1789 5.68949 12.9564C5.9727 12.5518 6.01316 12.572 7.12577 13.4621C7.75288 13.9476 8.27884 14.3118 8.27884 14.2713C8.27884 14.2106 7.95517 13.624 7.57081 12.9564C6.82233 11.6819 6.72118 11.3381 7.08531 10.9739C7.24714 10.8121 7.83379 11.1155 9.27007 12.1674C10.3422 12.9564 11.2525 13.624 11.293 13.6644ZM42.79 12.0056C43.5587 12.7743 43.6801 13.5835 43.1541 14.1904C42.8305 14.5343 42.79 14.5343 42.5473 14.2106C42.3854 13.9679 42.3652 13.7251 42.4866 13.5228C42.6079 13.2801 42.5473 13.0373 42.2843 12.7136L41.8999 12.2281L40.7468 13.0373C40.1197 13.4621 39.5533 13.9476 39.4926 14.0892C39.3308 14.4736 39.8163 14.9591 40.3423 14.9591C40.8682 14.9591 41.3537 15.4446 41.1514 15.7683C40.9087 16.1526 39.7354 15.9908 39.2903 15.5053C37.9754 14.069 38.1777 13.5835 40.7671 11.8236C41.7381 11.156 41.9606 11.1762 42.79 12.0056ZM8.37998 17.7912C8.54182 17.7912 8.48113 18.2767 8.3193 18.5599C8.19792 18.742 7.85402 18.6813 6.86279 18.2969L5.56811 17.7912L6.21545 18.4588C6.57958 18.8229 6.86279 19.187 6.86279 19.2477C6.86279 19.3286 6.43797 19.45 5.91201 19.5309L4.941 19.6725L6.25591 20.1176C7.32806 20.4817 7.55058 20.6435 7.51012 20.947C7.46967 21.1493 7.38875 21.3718 7.34829 21.4122C7.22691 21.5538 2.73601 19.895 2.67532 19.6927C2.53372 19.2679 3.03945 18.9443 4.01046 18.8431C4.57688 18.8027 5.04215 18.6813 5.04215 18.6004C5.04215 18.5194 4.71848 18.1553 4.33413 17.8114C3.68679 17.245 3.44404 16.6179 3.74748 16.3347C3.80816 16.2538 4.86009 16.5572 6.07384 17.0023C7.30783 17.4271 8.33953 17.7912 8.37998 17.7912ZM45.6626 16.9213C45.703 17.2248 45.5412 17.3664 44.8939 17.5687C43.8622 17.8721 43.9431 18.2767 45.0557 18.3576C46.2897 18.4588 47.2809 19.8141 46.1076 19.8141C45.9053 19.8141 45.703 19.713 45.6626 19.5916C45.6221 19.4702 45.1568 19.3286 44.6511 19.3084C43.7408 19.2477 43.7003 19.2477 42.9518 20.3199C42.5068 20.9267 42.1022 21.4122 42.0415 21.4325C41.9606 21.4325 41.8392 21.1897 41.7785 20.9065C41.6572 20.4817 41.7988 20.1783 42.3652 19.45C42.7495 18.9443 43.0732 18.4588 43.0732 18.3778C43.0732 18.2767 42.6889 18.3576 42.2236 18.5194C41.2728 18.8431 40.7873 18.7622 40.8885 18.2767C40.9491 17.953 44.9545 16.3347 45.3996 16.4561C45.521 16.4763 45.6221 16.6988 45.6626 16.9213ZM47.3214 23.0306C47.3214 23.5161 46.9572 23.6577 45.5412 23.6779H44.3881L45.8446 24.2241C46.9977 24.6489 47.3011 24.8512 47.3821 25.2356C47.4225 25.4986 47.3618 25.7413 47.2405 25.7818C46.5729 25.9841 42.4663 26.065 42.4461 25.8829C42.345 25.2153 42.4057 25.1749 43.7812 25.0737L45.1973 24.9726L43.7408 24.4062C42.4866 23.9207 42.264 23.7588 42.264 23.3542C42.264 22.8283 42.5675 22.7676 45.8649 22.6867C47.1798 22.6462 47.3214 22.6867 47.3214 23.0306ZM7.34829 22.9699C7.75288 23.1317 7.77311 23.86 7.38875 23.86C7.22691 23.86 7.06508 24.1634 6.98416 24.6085C6.78187 25.8627 6.82233 26.0852 7.26737 26.0852C7.53035 26.0852 7.67196 26.2268 7.67196 26.4898C7.67196 26.8135 7.53035 26.8944 6.9437 26.8944C6.47843 26.8944 6.1143 26.773 5.95247 26.5505C5.77041 26.2875 5.2849 26.2066 3.90931 26.1257C2.91808 26.0852 2.02799 25.9638 1.94707 25.8829C1.84592 25.802 1.84592 25.1749 1.92684 24.4871L2.06844 23.2126L4.09137 23.2733C5.52765 23.3138 6.15476 23.2531 6.21545 23.0913C6.29637 22.8283 6.84256 22.7676 7.34829 22.9699ZM7.16623 28.3104C7.26737 28.5936 7.16623 28.8364 6.86279 29.0791C6.49866 29.3826 6.4582 29.504 6.64026 29.9895C6.78187 30.3334 7.00439 30.5357 7.26737 30.5357C7.48989 30.5357 7.67196 30.6773 7.67196 30.8391C7.67196 31.0009 7.67196 31.2032 7.67196 31.2841C7.67196 31.3448 6.59981 31.3853 5.2849 31.3651C3.36312 31.3246 2.87762 31.2639 2.65509 30.9807C2.51349 30.7986 2.43257 30.5761 2.47303 30.475C2.51349 30.3131 6.57958 27.9665 6.90325 27.9261C6.98416 27.9058 7.10554 28.0879 7.16623 28.3104ZM44.6916 28.4116C45.9458 28.6948 47.0179 28.9578 47.0584 28.9982C47.2405 29.1803 46.5931 31.6078 46.3504 31.709C45.8649 31.891 45.703 31.4662 45.9255 30.657C46.0874 30.0501 46.0874 29.8276 45.8649 29.7062C45.2984 29.3421 44.9343 29.5242 44.8129 30.2322C44.7118 30.7582 44.5702 30.9402 44.2667 30.9402C43.9026 30.9402 43.8622 30.8391 43.9228 30.0704C43.9835 29.2814 43.9431 29.2207 43.4373 29.1601C42.8912 29.0994 42.8507 29.1398 42.5877 30.3738C42.5068 30.7582 42.3247 30.9402 42.0618 30.9402C41.5965 30.9402 41.5965 30.8998 41.8797 29.4837C42.1224 28.2497 42.2236 27.9058 42.3247 27.9058C42.3652 27.9058 43.4373 28.1284 44.6916 28.4116ZM8.64296 34.8243C8.78457 34.9659 8.88572 35.2491 8.88572 35.4918C8.88572 35.7346 8.78457 36.0178 8.64296 36.1594C8.50136 36.301 8.21815 36.4021 7.9754 36.4021C7.16623 36.4021 6.74141 35.3907 7.30783 34.8243C7.44944 34.6827 7.73265 34.5815 7.9754 34.5815C8.21815 34.5815 8.50136 34.6827 8.64296 34.8243ZM42.8102 35.1075C43.053 35.4918 43.0328 35.593 42.7091 35.9976C42.2236 36.6044 41.3133 36.4224 41.1312 35.6941C40.8682 34.6422 42.1831 34.1769 42.8102 35.1075ZM38.2182 40.3671C39.0071 41.4392 39.6342 42.3293 39.5938 42.3496C39.5533 42.3698 39.3915 42.4912 39.1892 42.6328C38.906 42.8553 38.7441 42.7541 38.0361 41.7427C37.1056 40.448 37.0853 40.448 37.5102 42.2484C37.7529 43.2194 37.7731 43.6038 37.5911 43.8061C37.1258 44.3725 37.0449 44.3118 34.5769 40.893C34.0914 40.2255 34.0914 40.2053 34.4758 39.922C34.8197 39.6591 34.9208 39.74 35.6491 40.7514C36.0739 41.3583 36.4582 41.8641 36.4987 41.8641C36.5189 41.8641 36.4178 41.2369 36.2357 40.4682C35.6491 37.798 36.2559 37.7575 38.2182 40.3671ZM14.8736 39.6388C16.0064 40.4278 16.1278 41.2167 15.2579 42.0057C14.9747 42.2484 14.7927 42.5721 14.8534 42.7137C14.914 42.8553 14.7724 43.2801 14.5499 43.624C14.2262 44.15 14.024 44.2916 13.5182 44.2916C12.9518 44.2916 11.1109 43.4217 11.1109 43.1587C11.1109 43.0171 13.7812 39.032 13.8824 39.032C13.943 39.032 14.3679 39.3152 14.8736 39.6388ZM20.821 42.7137C20.821 43.1385 20.5378 43.1587 19.6072 42.8553C19.0813 42.6732 18.9194 42.6732 18.7778 42.8957C18.3935 43.5026 18.5755 43.8668 19.324 44.0084C19.8905 44.1095 20.0321 44.2107 19.9714 44.5748C19.9309 44.8782 19.7893 44.9794 19.5061 44.9187C18.4339 44.6962 18.09 44.7771 18.0294 45.3233C17.9687 45.7885 18.0698 45.8695 18.879 46.1122C19.85 46.3752 19.9107 46.4359 19.6275 46.9011C19.4656 47.1641 19.2633 47.1439 18.1912 46.8202C17.5034 46.6179 16.8965 46.3145 16.8358 46.1729C16.7751 46.0313 17.0179 45.0401 17.382 43.9477C17.7259 42.8553 18.0496 41.8641 18.09 41.7224C18.2114 41.3179 20.821 42.2686 20.821 42.7137ZM30.5311 42.0866C30.5311 42.2282 30.7738 42.2686 31.2391 42.1877C32.2505 41.9854 32.6956 42.3091 33.0799 43.5633C33.4845 44.8378 33.3834 45.1817 32.554 45.6672C32.2303 45.8492 31.9471 46.1527 31.9471 46.3347C31.9471 46.7393 31.1986 46.9821 30.9761 46.6382C30.8952 46.5168 30.4906 46.3954 30.0456 46.4156C29.0139 46.4156 28.4879 45.7481 28.4474 44.3927C28.407 43.4824 28.4677 43.361 29.0543 42.9767C29.4184 42.7541 29.6814 42.4709 29.6207 42.3293C29.5803 42.208 29.6005 42.0461 29.6612 41.9854C29.8837 41.7831 30.5311 41.8641 30.5311 42.0866ZM25.4737 43.179C25.7772 43.4419 25.8783 43.8061 25.8783 44.5141C25.8783 45.303 25.7974 45.5458 25.3524 45.8897C25.0489 46.1324 24.5432 46.3145 24.2397 46.3145C23.9161 46.3145 23.6733 46.3752 23.6733 46.4561C23.7947 47.1844 23.6126 47.7305 23.2687 47.7305C23.0462 47.7305 22.8439 47.6496 22.8035 47.5283C22.7832 47.4271 22.763 46.274 22.8035 44.9794L22.8642 42.6328L23.9565 42.7137C24.6443 42.7744 25.2108 42.9564 25.4737 43.179Z" fill="#02558A"/>
<path d="M16.6538 6.66509C16.7145 6.9483 16.7752 7.27197 16.7752 7.41357C16.7752 7.55518 16.9168 7.61587 17.0787 7.55518C17.4832 7.39335 17.463 7.27197 16.9573 6.66509L16.5325 6.15936L16.6538 6.66509Z" fill="#02558A"/>
<path d="M11.2728 8.3037C10.8075 8.56668 10.8277 8.66783 11.4346 9.35562C11.8392 9.84113 11.9808 9.90181 12.2236 9.69952C12.6281 9.35562 12.6079 8.82966 12.1629 8.42507C11.7381 8.02049 11.7381 8.02049 11.2728 8.3037Z" fill="#02558A"/>
<path d="M19.7489 13.0778C19.668 13.1385 19.6073 14.4534 19.6073 15.9908C19.6073 18.3374 19.5669 18.7825 19.2836 18.8836C19.1016 18.9443 18.9195 19.005 18.8791 19.005C18.8386 19.005 18.7981 17.771 18.7981 16.2538C18.7981 13.8263 18.7577 13.5229 18.4745 13.624C18.2924 13.6847 18.1103 13.7454 18.0699 13.7454C18.0294 13.7454 17.989 14.9996 17.989 16.537V19.3085L16.229 20.1783C15.2378 20.6436 14.6714 20.9875 14.9546 20.9268C17.3821 20.4211 20.376 19.9962 21.1852 20.0569L22.1764 20.1176L21.7921 21.5539L21.4077 22.9902L19.3443 23.1318C16.7954 23.3139 13.579 23.7791 12.2236 24.1635L11.2122 24.4669L12.4259 24.3658C15.8447 24.1028 22.2776 24.0219 24.0578 24.2242C26.5055 24.5276 28.8723 25.1345 30.43 25.8627C31.6437 26.4292 33.0598 27.6632 33.2621 28.3105C33.343 28.533 33.8285 28.7555 34.7388 28.9578C35.4873 29.1399 36.2965 29.3422 36.5392 29.4231C36.964 29.5647 36.9843 29.5242 36.8224 28.9781C36.1953 26.7933 34.3545 25.3166 31.0369 24.2849C29.4185 23.7791 26.3032 23.2734 24.6646 23.2329C22.5203 23.1925 22.5608 23.3139 23.4509 20.4615L24.2196 17.9935H23.37C22.9249 17.9935 22.0753 18.1149 21.4886 18.2768C20.9222 18.4386 20.3963 18.4993 20.3356 18.4386C20.2749 18.3779 20.2142 17.1237 20.2142 15.6267C20.2142 13.1587 20.1333 12.6935 19.7489 13.0778Z" fill="white"/>
<path d="M15.2782 27.5418C13.9026 29.3219 13.5992 29.8479 13.8622 29.9086C14.0443 29.9288 14.287 29.8277 14.3882 29.6456C14.6511 29.1803 16.4718 29.1803 16.2897 29.6456C16.2088 29.8681 16.2695 29.9288 16.5122 29.8884C16.755 29.8479 17.0584 29.2006 17.5237 27.7036C17.8878 26.5303 18.1913 25.5188 18.1913 25.4177C18.1913 25.3368 17.9283 25.2761 17.6046 25.2761C17.0989 25.2761 16.7954 25.5795 15.2782 27.5418ZM17.3821 26.1257C17.3821 26.1662 17.2 26.7326 16.9977 27.4001C16.6538 28.5128 16.5729 28.6139 15.9863 28.6746C15.6424 28.7151 15.3592 28.6746 15.3592 28.5937C15.3592 28.3914 17.0584 26.1055 17.2405 26.0852C17.3214 26.0852 17.3821 26.1055 17.3821 26.1257Z" fill="white"/>
<path d="M19.1621 25.3973C19.1014 25.4985 18.798 26.4493 18.4946 27.5012C18.1911 28.5531 17.8877 29.5444 17.8472 29.6657C17.7663 29.868 18.0495 29.9287 18.8789 29.9287C20.1534 29.9287 20.4366 29.6657 20.8007 28.2092C20.9019 27.7642 21.1041 27.0157 21.2458 26.5302C21.3671 26.0649 21.4278 25.6199 21.3671 25.539C21.1446 25.3367 19.2633 25.2153 19.1621 25.3973ZM20.5782 26.5302C20.4973 27.1573 19.4049 27.3394 19.4049 26.7325C19.4049 26.2268 19.5667 26.0851 20.1534 26.0851C20.558 26.0851 20.6389 26.1863 20.5782 26.5302ZM20.0927 28.3913C19.8904 29.0184 19.6072 29.3218 19.1824 29.3218C18.7171 29.3218 18.6564 28.4722 19.1014 28.0474C19.5465 27.6023 20.2545 27.8451 20.0927 28.3913Z" fill="white"/>
<path d="M29.9242 29.4433C28.2452 29.7063 26.6673 30.0502 24.0982 30.738C20.2546 31.7899 17.7664 32.0933 15.5816 31.7697C14.6511 31.6281 13.761 31.4662 13.5789 31.4055C13.2957 31.3044 13.2957 31.3449 13.6194 31.7292C14.2465 32.4372 16.411 33.388 17.9485 33.6105C19.8298 33.914 21.9336 33.5094 25.5345 32.154C29.3983 30.6975 31.0571 30.3132 33.6059 30.2727C36.0132 30.2323 36.0132 30.0502 33.6059 29.6051C32.0887 29.3422 30.9761 29.3017 29.9242 29.4433Z" fill="#02558A"/>
<path d="M30.4298 31.6887C29.3577 31.9314 27.8 32.4978 25.8175 33.3879C22.7225 34.7837 21.2053 35.2086 19.3037 35.249C18.4136 35.249 17.4628 35.2086 17.1796 35.1074C16.6941 34.9658 16.6941 34.9658 17.0785 35.2895C17.7461 35.8154 19.4049 36.22 21.4278 36.3414C23.7339 36.4628 24.4419 36.2402 27.5573 34.3994C30.0252 32.9429 31.5424 32.3765 33.4642 32.2146L34.8803 32.073L34.0711 31.8303C33.2822 31.5875 31.239 31.5066 30.4298 31.6887Z" fill="#02558A"/>
<path d="M30.6728 34.0757C29.9041 34.3387 28.3869 35.3097 27.1529 36.3212C26.7887 36.6044 25.9796 37.0697 25.3322 37.3326L24.1589 37.8384L25.6964 37.7777C27.3754 37.717 27.5979 37.5956 29.9243 35.6941C31.0976 34.7231 32.0484 34.1971 33.0598 33.9544C33.5453 33.833 33.4442 33.8127 32.5541 33.7925C31.9472 33.7925 31.0976 33.9139 30.6728 34.0757Z" fill="#02558A"/>
<path d="M2.81689 24.6489C2.81689 24.9523 3.01919 25.0332 4.09134 25.1344C4.77914 25.1951 5.50739 25.2962 5.70968 25.3771C5.99289 25.4985 6.05358 25.4176 6.05358 24.8916V24.2645H4.43524C2.99896 24.2645 2.81689 24.305 2.81689 24.6489Z" fill="#02558A"/>
<path d="M5.0018 29.9894C4.27354 30.2726 4.29377 30.4749 5.04226 30.4951C5.50753 30.4951 5.64914 30.4142 5.64914 30.1108C5.64914 29.9085 5.62891 29.7264 5.60868 29.7466C5.56822 29.7669 5.30524 29.868 5.0018 29.9894Z" fill="#02558A"/>
<path d="M13.9429 40.5491C13.6193 40.9335 13.8418 41.4999 14.2868 41.419C14.7319 41.338 14.8735 40.5491 14.4689 40.3873C14.3071 40.3266 14.0643 40.4075 13.9429 40.5491Z" fill="#02558A"/>
<path d="M12.6687 42.4508C12.345 42.997 12.345 43.0172 12.8305 43.2397C13.2149 43.4218 13.3767 43.4016 13.6397 43.1588C14.0241 42.7542 14.0241 42.6126 13.579 42.208C13.0935 41.763 13.0733 41.763 12.6687 42.4508Z" fill="#02558A"/>
<path d="M30.9355 43.1386C30.9355 43.4016 31.6031 45.1008 31.7043 45.1008C31.7852 45.1008 31.9672 45.0199 32.1291 44.9188C32.3718 44.7569 32.3921 44.5951 32.1695 43.9073C31.9672 43.2195 31.8459 43.0779 31.4413 43.0779C31.1581 43.0779 30.9355 43.0981 30.9355 43.1386Z" fill="#02558A"/>
<path d="M29.54 43.6645C29.0545 43.9679 29.4793 45.384 30.0861 45.4649C30.5919 45.5458 30.6323 45.3637 30.2884 44.2714C30.0457 43.4217 29.985 43.3813 29.54 43.6645Z" fill="#02558A"/>
<path d="M23.8555 44.494C23.8555 45.2425 23.8959 45.3234 24.3207 45.2627C24.6849 45.2222 24.7658 45.0806 24.7658 44.494C24.7658 43.9073 24.6849 43.7657 24.3207 43.7253C23.8959 43.6646 23.8555 43.7455 23.8555 44.494Z" fill="#02558A"/>
</svg>
