<svg width="148" height="50" viewBox="0 0 148 50" fill="none" xmlns="http://www.w3.org/2000/svg">
<path d="M23.2097 0.254575C22.2768 0.575895 21.6804 0.912515 20.9158 1.55515L20.4111 1.98358L20.7323 2.3049L21.0534 2.62622L21.6346 2.10599C22.6745 1.17263 23.5767 0.820709 24.9684 0.820709C26.5741 0.820709 27.6293 1.31034 29.0362 2.71802C30.1985 3.89619 30.6879 4.58473 31.7583 6.55855C32.7524 8.40996 32.7524 8.18045 31.7736 6.11483C29.495 1.40214 26.3141 -0.785887 23.2097 0.254575Z" fill="#52A9DF"/>
<path d="M17.8878 3.4065C17.0314 3.86552 16.7103 5.04369 17.1691 5.94645C17.5055 6.58909 17.9796 6.8645 18.7901 6.8645C20.1053 6.8645 20.977 5.68633 20.5641 4.44696C20.2276 3.4218 18.836 2.87096 17.8878 3.4065Z" fill="#52A9DF"/>
<path d="M4.95019 7.56835C2.93155 8.01208 1.63166 8.91483 0.928197 10.3531C0.545878 11.1182 0.5 11.3936 0.5 12.6789C0.5 14.3161 0.805855 15.4483 1.7693 17.4221C3.52796 21.0638 8.05461 26.2661 12.3977 29.6629C13.2083 30.2902 13.8964 30.9481 13.9423 31.1165C13.9729 31.2848 14.1258 32.2487 14.2635 33.2586C14.4164 34.2684 14.7834 36.1199 15.1046 37.3898C15.4257 38.6445 15.7163 39.7768 15.7469 39.8992C15.8386 40.3123 11.9237 41.3222 9.09452 41.6129C8.23812 41.7047 7.53466 41.7812 7.51937 41.7965C7.50407 41.8118 7.45819 42.0107 7.39702 42.2402L7.30527 42.6686H8.55927C10.1497 42.6686 12.2142 42.3626 14.4929 41.7812C15.4563 41.5364 16.2515 41.3375 16.2668 41.3528C16.2668 41.3528 16.695 42.2249 17.1997 43.2807C18.9583 46.9223 20.9923 49.0797 23.3473 49.7683C24.4331 50.0896 25.2742 50.0743 26.3906 49.7377C28.7151 49.0032 30.8867 46.5857 32.5077 42.9135C32.8747 42.0566 33.1959 41.3528 33.2265 41.3222C33.2417 41.2916 34.0523 41.4905 35.0004 41.7353C37.7225 42.4544 39.4353 42.7146 41.7139 42.7146C43.9008 42.7146 45.0324 42.5156 46.3629 41.8883C47.7393 41.2457 48.7945 40.0063 49.1462 38.6292C49.2379 38.2773 49.1921 38.2314 48.8098 38.2314C48.4274 38.2314 48.3204 38.3385 48.0757 38.9199C47.724 39.7921 46.6841 40.7254 45.5524 41.1539C44.2372 41.6741 41.1787 41.7353 38.7318 41.3069C37.172 41.0162 33.8076 40.1593 33.6394 39.991C33.6088 39.9757 33.7311 39.4708 33.8993 38.9046C34.3275 37.451 34.7863 35.1253 35.031 33.075C35.138 32.1263 35.2757 31.3307 35.3063 31.3001C35.3369 31.2695 36.025 30.7339 36.8202 30.0913C41.8669 26.0978 45.9194 21.5381 47.8922 17.5905C48.8709 15.6472 49.2685 14.2396 49.2685 12.6636C49.2685 11.4854 49.2227 11.2406 48.7792 10.3378C48.2133 9.17495 47.6628 8.67002 46.3782 8.07328C44.3902 7.13993 41.6222 7.07872 37.8602 7.88967C37.2026 8.02738 36.6979 8.16509 36.7132 8.19569C36.7438 8.22629 37.4473 8.13449 38.2883 8.01208C39.1142 7.88967 40.567 7.78257 41.4845 7.78257C50.5225 7.79787 50.7061 14.4385 41.9433 23.6649C41.041 24.6136 40.2611 25.3633 40.2305 25.3174C40.1847 25.2868 40.5823 24.0627 41.1022 22.6091C43.549 15.7696 43.9467 13.9947 43.2585 13.3062C42.3103 12.3575 38.9306 12.8472 35.0616 14.4844C33.0735 15.3106 28.868 17.4374 26.4977 18.7839C24.2343 20.0845 19.6006 23.1753 17.1997 24.9808C16.1139 25.7917 15.1657 26.4038 15.074 26.3579C14.8599 26.2202 15.0281 21.6452 15.334 18.6003C15.6092 15.9074 16.328 12.434 17.0773 10.0777L17.6737 8.22629L17.215 7.99678C16.9703 7.85907 16.7256 7.78257 16.695 7.81317C16.5268 7.99678 15.4869 11.1335 15.1046 12.6636C14.0952 16.703 13.6823 20.3752 13.6823 25.2562C13.6823 27.2606 13.6518 28.8978 13.6212 28.8978C13.4071 28.8978 9.58389 25.4704 8.05461 23.9097C5.3478 21.1403 3.6503 18.891 2.47276 16.5194C0.178853 11.8832 1.40227 8.76182 5.83716 7.92027C6.84649 7.73666 9.82857 7.75196 11.1437 7.95087C12.7036 8.19569 12.6118 8.01208 11.0214 7.72136C9.04864 7.33884 6.25007 7.27763 4.95019 7.56835ZM31.7278 27.8574C33.0124 29.1426 34.0676 30.2596 34.0676 30.3361C34.0676 30.5197 33.9146 30.6268 31.3913 32.3252C30.2138 33.1209 28.2716 34.3297 27.0635 35.0182L24.8766 36.2729L22.9344 35.1712C20.4876 33.7941 15.3951 30.4126 15.4563 30.2137C15.4869 30.1372 16.695 29.2344 18.1478 28.2399L20.7935 26.4038L21.8945 27.5054L23.0109 28.6224L25.9777 27.0923C27.614 26.2661 29.0515 25.5622 29.1739 25.5469C29.2962 25.5469 30.4432 26.5874 31.7278 27.8574ZM34.771 32.0651C34.7251 32.2181 34.6181 32.7843 34.5263 33.3351C34.2817 34.6969 33.6699 37.1603 33.2112 38.568L32.8288 39.7462L31.8195 39.3637C29.4491 38.4762 26.5741 37.1756 26.5741 36.992C26.5741 36.9155 26.8035 36.7472 27.0788 36.6095C28.1493 36.0587 31.6207 33.9165 33.0735 32.8914C33.9146 32.2946 34.664 31.8203 34.7251 31.805C34.8016 31.805 34.8169 31.9274 34.771 32.0651ZM21.7263 36.0893C22.5368 36.5483 23.2097 36.9767 23.2097 37.0226C23.2097 37.1909 17.6279 39.6085 17.2608 39.6085C17.0009 39.6085 15.9151 35.1406 15.6245 32.922L15.5328 32.1263L17.8878 33.687C19.1877 34.5439 20.9158 35.6302 21.7263 36.0893ZM26.0847 38.3691C27.4764 39.0729 29.7703 40.0522 31.1619 40.5265C31.7125 40.7254 32.2018 40.9243 32.263 40.9855C32.4618 41.1539 30.749 44.4283 29.7856 45.6982C28.1646 47.8557 26.36 48.9114 24.5861 48.7431C22.338 48.5442 20.1818 46.4939 18.469 42.9135C17.689 41.2457 17.5973 40.8631 17.949 40.7407C19.203 40.3123 22.3074 39.027 23.4391 38.4762C24.2037 38.0937 24.8307 37.7877 24.8613 37.7877C24.8766 37.7724 25.4272 38.0325 26.0847 38.3691Z" fill="#52A9DF"/>
<path d="M12.6272 8.19567C12.7343 8.24158 12.8719 8.22627 12.9178 8.18037C12.979 8.13447 12.8872 8.08857 12.719 8.10387C12.5508 8.10387 12.5049 8.14977 12.6272 8.19567Z" fill="#52A9DF"/>
<path d="M24.1272 10.5213C24.1272 10.705 24.219 10.8733 24.326 10.9039C24.4178 10.9498 25.84 11.011 27.461 11.0569C30.0455 11.1334 30.4125 11.1181 30.5043 10.9039C30.5501 10.7815 30.5349 10.6131 30.4584 10.5366C30.3819 10.4601 28.9291 10.353 27.2316 10.2918L24.1272 10.1847V10.5213Z" fill="#52A9DF"/>
<path d="M19.9831 12.1126C19.0961 12.3574 18.4079 12.8624 18.1785 13.4132C18.0256 13.7804 18.0562 13.964 18.3926 14.6832L18.7749 15.54L19.5702 15.1422L20.3807 14.7444L25.8861 14.6679L31.3914 14.5761L33.1348 13.8569C34.0983 13.4591 34.9699 13.1378 35.0923 13.1378C35.3828 13.1378 35.337 12.7094 35.0311 12.6176C34.4653 12.4646 32.4466 12.3574 27.2012 12.2197C24.2191 12.1279 21.5429 12.0361 21.2371 11.9902C20.9312 11.9596 20.3654 12.0055 19.9831 12.1126Z" fill="#52A9DF"/>
<path d="M106.892 13.8723C106.632 14.0406 106.846 14.6373 107.32 15.0504C107.564 15.2799 107.87 15.3564 108.497 15.3564C109.247 15.3564 109.384 15.3105 109.782 14.8515C110.042 14.5608 110.225 14.2242 110.195 14.0865C110.118 13.6733 109.629 13.6886 109.231 14.1171C108.757 14.622 108.191 14.622 107.809 14.1324C107.488 13.7345 107.228 13.658 106.892 13.8723Z" fill="#52A9DF"/>
<path d="M142.264 13.903C142.096 14.1631 142.325 14.6374 142.814 15.0505C143.64 15.7391 144.986 15.4483 145.491 14.4997C145.689 14.1019 145.705 13.9948 145.521 13.8877C145.185 13.6734 144.971 13.7346 144.573 14.1325C144.359 14.3467 144.038 14.515 143.869 14.515C143.686 14.515 143.395 14.3467 143.197 14.1325C142.83 13.7346 142.432 13.6428 142.264 13.903Z" fill="#52A9DF"/>
<path d="M117.184 16.0451C116.22 16.244 115.792 16.4429 115.15 17.0397C113.452 18.5698 113.422 21.6452 115.088 23.1141C116.037 23.9404 116.847 24.2005 118.162 24.124C119.355 24.0475 119.875 23.8486 120.701 23.1753L121.16 22.8081L120.731 22.4103C120.502 22.1961 120.273 22.0125 120.227 22.0125C120.196 22.0125 119.89 22.1808 119.569 22.395C118.071 23.3896 116.281 22.9152 115.563 21.3239C114.691 19.396 115.93 17.2692 117.933 17.2692C118.621 17.2692 119.722 17.6976 119.936 18.0495C120.059 18.2331 120.93 17.4834 120.93 17.208C120.93 16.9938 120.059 16.397 119.477 16.2134C118.743 15.9839 117.841 15.9227 117.184 16.0451Z" fill="#52A9DF"/>
<path d="M61.7015 16.1522C61.6404 16.1981 61.5945 18.0036 61.5945 20.1304V24.0168L64.1025 23.9709C66.8552 23.925 67.0387 23.8638 67.7727 22.8693C68.2162 22.2878 68.2162 20.972 67.7727 20.3905C67.0846 19.4725 66.7634 19.3348 64.8365 19.2583L63.0473 19.1818V18.2637V17.3456L65.3106 17.2997L67.5586 17.2538V16.6571V16.0451H64.6836C63.0932 16.0451 61.7474 16.091 61.7015 16.1522ZM66.4423 20.8496C66.7328 21.2015 66.794 21.4004 66.7328 21.7676C66.5646 22.5939 66.3352 22.701 64.5766 22.7469L62.9708 22.8081V21.5534V20.2987L64.5154 20.3599C65.9988 20.4058 66.0753 20.4211 66.4423 20.8496Z" fill="#52A9DF"/>
<path d="M71.1524 19.8855C70.2348 21.997 69.4549 23.7873 69.4243 23.8638C69.3937 23.9403 69.6843 24.0015 70.0666 24.0015H70.7854L71.183 23.0834L71.5806 22.1654H73.4769H75.3732L75.7708 23.0834L76.1684 24.0015H76.9025H77.6212L76.7037 21.8899C76.199 20.7424 75.4191 18.9675 74.9756 17.9576L74.1804 16.1215L73.5075 16.0756L72.8346 16.0297L71.1524 19.8855ZM74.1957 19.3653C74.5015 20.0538 74.7462 20.6812 74.7462 20.773C74.7462 20.8801 74.2874 20.9413 73.4463 20.9413C72.7276 20.9413 72.1464 20.8801 72.1464 20.8036C72.1464 20.7424 72.3605 20.2068 72.6205 19.6254C72.8805 19.0593 73.1558 18.4166 73.2322 18.2024C73.431 17.7128 73.5381 17.8505 74.1957 19.3653Z" fill="#52A9DF"/>
<path d="M80.5116 18.233C80.3434 21.9358 80.0528 22.808 78.967 22.8998C78.4165 22.9457 78.4012 22.961 78.4471 23.5118C78.493 24.0626 78.5083 24.0779 79.1353 24.1238C80.9092 24.2463 81.5668 23.0222 81.7656 19.1817L81.8574 17.3455L83.2031 17.2996L84.5336 17.2537V20.6352V24.0014H85.2218H85.9099V20.0232V16.045H83.2643H80.6034L80.5116 18.233Z" fill="#52A9DF"/>
<path d="M87.7451 16.7335V17.4221H89.045H90.3449V20.7118V24.0015H91.0331H91.7212V20.7118V17.4221H92.9446H94.1681V16.7335V16.045H90.9566H87.7451V16.7335Z" fill="#52A9DF"/>
<path d="M96.0032 20.0232V24.0015H96.6761H97.3642L99.3217 21.1555L101.279 18.3095L101.325 21.1555L101.356 24.0015H102.044H102.732V20.0232V16.045H102.151C101.769 16.045 101.463 16.1521 101.325 16.3051C101.187 16.4581 100.255 17.774 99.2299 19.2429L97.3795 21.9052V18.9828V16.045H96.6913H96.0032V20.0232Z" fill="#52A9DF"/>
<path d="M105.133 16.1522C105.072 16.1981 105.026 18.0036 105.026 20.1304V24.0168L105.745 23.9709L106.479 23.925L108.39 21.1709L110.302 18.4167L110.348 21.2015L110.378 24.0015H111.067H111.755V20.0233V16.0451H111.143H110.547L108.589 18.8757C107.519 20.4211 106.586 21.6911 106.525 21.7064C106.448 21.7064 106.402 20.4364 106.402 18.8757V16.0451H105.821C105.5 16.0451 105.179 16.091 105.133 16.1522Z" fill="#52A9DF"/>
<path d="M122.918 20.0079V24.0015H123.607H124.295V22.8539C124.295 21.7216 124.31 21.6757 124.876 21.0637L125.472 20.4364L126.528 21.8134C127.124 22.5632 127.736 23.3741 127.904 23.6036C128.179 23.9862 128.286 24.0168 129.005 23.9709L129.815 23.925L128.118 21.7216L126.42 19.503L128.042 17.8811C128.929 16.9936 129.647 16.2133 129.647 16.1521C129.647 16.0909 129.311 16.045 128.898 16.045H128.149L126.222 18.0494L124.31 20.0538L124.264 18.0953L124.218 16.1215L123.576 16.0756L122.918 16.0297V20.0079Z" fill="#52A9DF"/>
<path d="M131.482 16.0756C131.482 16.1062 131.467 17.8964 131.436 20.0691L131.406 24.0015H132.094L132.782 23.9862L134.77 21.1249L136.758 18.2636L136.804 21.1402L136.835 24.0015H137.446H138.058V20.0232V16.045H137.462H136.881L134.923 18.8757C133.837 20.4364 132.904 21.7063 132.828 21.7063C132.767 21.7063 132.706 20.4364 132.706 18.8757V16.045H132.094C131.757 16.045 131.482 16.0603 131.482 16.0756Z" fill="#52A9DF"/>
<path d="M140.505 20.0079V24.0015H141.178H141.866L143.823 21.1708L145.781 18.3248L145.827 21.1708L145.857 24.0015H146.546H147.234V20.0232V16.045H146.653C146.27 16.045 145.964 16.1521 145.827 16.3051C145.689 16.4581 144.756 17.774 143.732 19.2429L141.881 21.9052L141.851 19.0134L141.805 16.1215L141.162 16.0756L140.505 16.0297V20.0079Z" fill="#52A9DF"/>
<path d="M20.0287 17.2845C19.3559 17.6364 18.4383 18.2331 18.0101 18.631L17.2149 19.3348L17.1384 20.972C17.0925 21.8901 17.0925 22.6245 17.1537 22.6245C17.2149 22.6245 18.5301 21.8136 20.044 20.819C23.8366 18.3556 24.0201 18.2331 25.5035 17.3916L26.8034 16.6572H24.0201H21.2522L20.0287 17.2845Z" fill="#52A9DF"/>
<path d="M42.494 25.7611C42.6316 25.9294 43.1821 26.618 43.7327 27.2912C44.7726 28.5612 46.0725 30.4432 46.5159 31.3001C46.8065 31.8662 47.0359 32.0498 47.2347 31.8509C47.3265 31.7591 47.1124 31.2848 46.623 30.5656C45.8431 29.4027 43.2739 26.312 42.6163 25.7611L42.2493 25.4551L42.494 25.7611Z" fill="#52A9DF"/>
<path d="M3.68091 29.9688C1.69286 32.723 0.744706 34.8957 0.622364 37.0073C0.561193 38.0936 0.591778 38.4455 0.88234 39.2106C1.21878 40.0827 1.23407 40.098 1.50934 39.8226C1.76932 39.5472 1.76932 39.5013 1.49405 38.6904C1.32583 38.2313 1.20349 37.4969 1.1882 37.0685C1.1882 35.3089 2.2281 32.5394 3.84913 30.0453C4.32321 29.3262 4.67494 28.7448 4.62906 28.7448C4.59847 28.7448 4.17028 29.2956 3.68091 29.9688Z" fill="#52A9DF"/>
<path d="M63.0626 29.0509C62.5427 29.2192 61.5945 29.8466 61.5945 30.0302C61.5945 30.122 61.7322 30.3362 61.9157 30.5198L62.2215 30.8564L62.9097 30.4739C64.1637 29.7701 65.7389 30.0302 65.9683 30.9635C66.1671 31.7745 65.2648 32.4171 63.9343 32.4171C63.4603 32.4171 63.4297 32.4477 63.4297 32.9526V33.4882H64.179C65.5401 33.4882 66.1824 33.9013 66.1824 34.7735C66.1824 35.2019 65.6165 35.7221 64.9742 35.8598C64.3778 35.9822 63.1544 35.6915 62.4815 35.2478L61.9157 34.8653L61.6098 35.2784C61.1969 35.7833 61.1969 35.8598 61.7322 36.2423C62.925 37.0839 65.1425 37.2828 66.3353 36.6555C67.8034 35.8904 68.0022 33.9778 66.687 33.1669L66.1824 32.8455L66.7023 32.3559C67.7575 31.3613 67.5128 29.9078 66.1824 29.2345C65.4636 28.8826 63.9649 28.7908 63.0626 29.0509Z" fill="#52A9DF"/>
<path d="M71.81 29.6169C69.4549 34.9417 68.675 36.7931 68.782 36.9002C68.8432 36.9767 69.149 37.0073 69.4702 36.9767C70.0207 36.9308 70.0666 36.8849 70.4336 35.9668L70.8312 35.0182H72.7581H74.685L74.9603 35.7832C75.1132 36.2116 75.3426 36.6554 75.4649 36.7778C75.6943 37.0073 76.8872 37.0991 76.8719 36.8849C76.8719 36.8237 76.0919 35.0182 75.1438 32.876L73.431 28.9743L72.7887 28.9284C72.1464 28.8825 72.1311 28.8825 71.81 29.6169ZM73.4769 32.2181L74.1039 33.7176L72.804 33.7635C72.0852 33.7941 71.4735 33.7788 71.4276 33.7482C71.3512 33.6564 72.6358 30.7339 72.7581 30.7339C72.804 30.7339 73.1251 31.4072 73.4769 32.2181Z" fill="#52A9DF"/>
<path d="M89.3967 29.1121C86.7664 30.0454 85.9253 33.5188 87.8063 35.7374C89.1826 37.3746 92.1953 37.4511 93.8316 35.8904C94.7186 35.0335 95.0092 34.3297 95.0092 32.9526C95.0092 31.9887 94.9327 31.5908 94.6727 31.1012C94.2292 30.275 93.1281 29.311 92.3635 29.0815C91.5836 28.8367 90.1155 28.852 89.3967 29.1121ZM92.1188 30.4433C93.2352 30.9788 93.8316 32.3253 93.541 33.6259C93.2199 35.0488 92.1341 35.8751 90.7119 35.7527C88.4027 35.5538 87.3934 32.6772 89.0144 30.9023C89.7637 30.0914 91.0177 29.9077 92.1188 30.4433Z" fill="#52A9DF"/>
<path d="M78.5999 32.9833L78.6458 36.9309L81.0162 36.9156C83.1266 36.9003 83.463 36.8697 84.0288 36.579C84.9005 36.1353 85.1452 35.7221 85.1452 34.7735C85.1452 34.1308 85.0687 33.8707 84.7629 33.5035C84.5488 33.2587 84.2276 32.9986 84.0594 32.9527C83.7536 32.8456 83.7536 32.8303 84.1359 32.4324C84.3653 32.1876 84.61 31.7439 84.7017 31.4379C84.9005 30.7187 84.5335 29.8925 83.7842 29.4029C83.2948 29.0815 83.096 29.0509 80.9091 29.0509H78.5693L78.5999 32.9833ZM83.1113 30.6422C83.5548 31.1625 83.5548 31.4226 83.0807 31.8816C82.7443 32.2335 82.5913 32.2641 81.322 32.2641H79.9457V31.1778V30.0761L81.3526 30.1526C82.6372 30.2291 82.7901 30.275 83.1113 30.6422ZM83.4477 33.8554C83.6465 34.039 83.7689 34.3298 83.7689 34.6511C83.7689 35.4773 83.2489 35.7068 81.475 35.7068H80.0221L79.9763 34.5899L79.9304 33.4576L81.5361 33.5188C82.836 33.5494 83.1877 33.6106 83.4477 33.8554Z" fill="#52A9DF"/>
<path d="M97.6854 30.6422C97.6854 33.3352 97.0737 35.6456 96.3396 35.7527C96.0185 35.7986 96.0032 35.8751 96.0032 37.2522V38.7058L96.5843 38.6599L97.1501 38.614L97.196 37.8031L97.2419 37.0074H100.056H102.87L102.915 37.8031L102.961 38.614L103.542 38.6599C104.078 38.7058 104.108 38.6752 104.108 38.2774C104.108 38.0479 104.154 37.3899 104.215 36.8085L104.307 35.7833H103.818H103.344V32.4171V29.0509H100.515H97.6854V30.6422ZM101.937 32.9833L101.891 35.7068L100.071 35.7527L98.2512 35.7986L98.3583 35.4467C98.8323 33.7942 98.9394 33.2128 99.0158 31.8357L99.1076 30.275H100.545H101.967L101.937 32.9833Z" fill="#52A9DF"/>
<path d="M47.5404 33.4117C46.9287 33.9319 46.6841 34.6969 46.9134 35.4008C47.571 37.4052 50.5837 36.9768 50.5837 34.8652C50.5837 33.3199 48.718 32.4324 47.5404 33.4117Z" fill="#52A9DF"/>
<path d="M2.79401 40.7255C2.21288 41.307 2.02937 41.8578 2.1823 42.4698C2.22818 42.684 2.50344 43.0972 2.79401 43.3879C3.20691 43.801 3.42101 43.8928 3.92567 43.8928C4.78206 43.8928 5.37848 43.5562 5.68433 42.9136C6.00548 42.225 5.99019 41.6283 5.63846 41.0775C5.24084 40.4654 4.76677 40.2359 3.97155 40.2206C3.40572 40.2206 3.20691 40.3124 2.79401 40.7255Z" fill="#52A9DF"/>
</svg>
