<svg width="173" height="50" viewBox="0 0 173 50" fill="none" xmlns="http://www.w3.org/2000/svg">
<path d="M71.6804 18.6413H66.9929V25.7176H71.6804V43.8052H79.4929V25.7176H84.1804V18.6413H79.4929V13.1377H87.3053V6.05933C79.4929 6.05933 71.6804 11.6928 71.6804 18.6413Z" fill="white"/>
<path d="M124.803 18.6414H116.99L123.24 43.8032H137.301L143.551 18.6414H135.739L130.741 38.6142L130.347 40.6578H130.192L129.803 38.6142L124.803 18.6414Z" fill="white"/>
<path d="M106.053 18.6415L106.21 22.4162H106.053C104.642 19.5853 101.678 18.1687 98.3916 18.1687C91.9864 18.1687 86.5166 24.066 86.5166 31.2418C86.5166 38.4176 91.9864 44.2762 98.3916 44.2762C101.672 44.2762 104.642 42.8557 106.053 40.0289H106.21L106.053 43.8034H113.865V18.6415H106.053ZM100.976 37.9062C99.6626 37.9065 98.3783 37.5148 97.2859 36.7804C96.1935 36.046 95.3419 35.0021 94.8391 33.7806C94.3362 32.559 94.2045 31.2148 94.4607 29.9179C94.7168 28.621 95.3494 27.4296 96.2783 26.4948C97.2072 25.5598 98.3908 24.9231 99.6791 24.6651C100.968 24.4073 102.303 24.5398 103.517 25.046C104.73 25.5523 105.767 26.4093 106.497 27.509C107.227 28.6085 107.616 29.9012 107.615 31.2235C107.615 32.101 107.444 32.9701 107.11 33.7809C106.776 34.5917 106.287 35.3284 105.671 35.9489C105.054 36.5693 104.323 37.0617 103.517 37.3974C102.711 37.7332 101.848 37.9062 100.976 37.9062Z" fill="white"/>
<path d="M163.862 18.6415L164.02 22.4162H163.862C162.45 19.5853 159.489 18.1687 156.2 18.1687C149.795 18.1687 144.328 24.066 144.328 31.2418C144.328 38.4176 149.795 44.2762 156.2 44.2762C159.483 44.2762 162.45 42.8557 163.862 40.0289H164.02L163.862 43.8034H171.674V18.6415H163.862ZM158.786 37.9062C157.472 37.9065 156.188 37.5148 155.095 36.7804C154.002 36.046 153.151 35.0021 152.648 33.7806C152.145 32.559 152.013 31.2148 152.27 29.9179C152.526 28.621 153.158 27.4296 154.087 26.4948C155.016 25.5598 156.2 24.9231 157.488 24.6651C158.777 24.4073 160.112 24.5398 161.325 25.046C162.539 25.5523 163.577 26.4093 164.306 27.509C165.036 28.6085 165.425 29.9012 165.424 31.2235C165.424 32.9959 164.726 34.6956 163.48 35.9489C162.235 37.2021 160.546 37.9062 158.786 37.9062Z" fill="white"/>
<path d="M17.9186 1.32886H12.9871V21.4641H37.9266C37.9266 18.8195 37.409 16.2008 36.4034 13.7577C35.3979 11.3145 33.924 9.09465 32.0661 7.22487C30.2081 5.3551 28.0024 3.87204 25.575 2.86038C23.1475 1.84874 20.5458 1.32833 17.9186 1.32886Z" fill="#FA9100"/>
<path d="M25.4548 43.1962C27.7296 44.5184 30.2407 45.3768 32.8449 45.7221C35.4491 46.0676 38.0955 45.8934 40.6329 45.2093C43.1702 44.5253 45.5489 43.3448 47.633 41.7354C49.7171 40.1261 51.4658 38.1193 52.7793 35.8296L55.2451 31.5315L37.9266 21.4639L25.4548 43.1962Z" fill="#32B4B4"/>
<path d="M12.987 21.4639L6.46081 25.2568C3.59912 26.922 1.5115 29.6628 0.656875 32.8768C-0.197753 36.0907 0.250576 39.5148 1.9033 42.3962C3.55601 45.2776 6.27785 47.3804 9.47043 48.2425C12.663 49.1045 16.065 48.6551 18.9286 46.9931L25.4547 43.1962L37.9265 21.4639H12.987Z" fill="#14378C"/>
</svg>
