<svg width="89" height="51" viewBox="0 0 89 51" fill="none" xmlns="http://www.w3.org/2000/svg">
<path d="M20.8213 46.4591V46.7092C20.8213 47.2897 21.0981 47.7451 21.667 48.1024C22.3898 48.5578 23.5276 48.8258 24.7578 48.8258C26.9875 48.8258 28.779 47.9059 28.779 46.7181C28.779 45.9501 28.2084 45.3696 27.0858 45.1463C28.0853 44.8248 28.4868 44.3783 28.4868 43.762C28.4868 42.7439 26.8491 42.0027 24.7271 42.0027C23.5584 42.0027 22.4359 42.226 21.79 42.5832C21.1903 42.9136 20.9443 43.3155 20.9443 43.9496H23.2509C23.2509 43.4495 23.7737 43.1458 24.6502 43.1458C25.5113 43.1458 26.0951 43.4495 26.0951 43.896C26.0951 44.3693 25.4652 44.6998 24.5733 44.6998H23.8813V45.8161H24.7424C25.0961 45.8161 25.4498 45.8786 25.7573 45.9947C26.1725 46.1555 26.3565 46.3877 26.3565 46.736C26.3565 47.3254 25.7573 47.6826 24.7886 47.6826C24.2196 47.6826 23.7429 47.5665 23.4815 47.37C23.2355 47.1825 23.1279 46.9324 23.1279 46.4591H20.8213Z" fill="white" stroke="white"/>
<path d="M32.6099 42.0325L29.8196 48.5902H32.1066L32.3542 47.9759H35.8987L36.1454 48.5902H38.4324L35.6413 42.0325H32.6099ZM34.1281 43.5703L35.4093 46.7595H32.8435L34.1281 43.5703Z" fill="white" stroke="white"/>
<path d="M53.1586 43.1397C52.4651 43.1397 51.9272 43.33 51.545 43.7106C51.1628 44.0913 50.9717 44.6271 50.9717 45.3181C50.9717 46.0062 51.1628 46.5405 51.545 46.9212C51.9272 47.3018 52.4651 47.4921 53.1586 47.4921C53.856 47.4921 54.3958 47.3018 54.778 46.9212C55.1602 46.5405 55.3513 46.0062 55.3513 45.3181C55.3513 44.6271 55.1602 44.0913 54.778 43.7106C54.3958 43.33 53.856 43.1397 53.1586 43.1397ZM53.1586 41.9143C54.5771 41.9143 55.6882 42.2159 56.4921 42.8191C57.2959 43.4222 57.6978 44.2552 57.6978 45.3181C57.6978 46.378 57.2959 47.2096 56.4921 47.8128C55.6882 48.4159 54.5771 48.7175 53.1586 48.7175C51.744 48.7175 50.6329 48.4159 49.8251 47.8128C49.0213 47.2096 48.6194 46.378 48.6194 45.3181C48.6194 44.2552 49.0213 43.4222 49.8251 42.8191C50.6329 42.2159 51.744 41.9143 53.1586 41.9143Z" fill="white" stroke="white"/>
<path d="M61.9571 47.3121H64.8928V43.311H62.5068V43.7107C62.5068 45.5846 62.3235 46.7851 61.9571 47.3121ZM59.2738 47.3121C59.6836 47.1101 59.9456 46.8612 60.0599 46.5655C60.1741 46.2668 60.2313 45.1688 60.2313 43.2715V42.033H67.1683V47.3121H67.9383V50H65.8997V48.5902H60.6497V50H58.6118V47.3121H59.2738Z" fill="white" stroke="white"/>
<path d="M43.825 44.5715C44.1836 44.5715 44.4555 44.513 44.6407 44.3959C44.8258 44.2787 44.9184 44.106 44.9184 43.8776C44.9184 43.6521 44.8258 43.4809 44.6407 43.3637C44.4555 43.2437 44.1836 43.1837 43.825 43.1837H41.724V44.5715H43.825ZM43.9019 47.4395C44.359 47.4395 44.7017 47.3678 44.9303 47.2243C45.1628 47.0808 45.279 46.8642 45.279 46.5743C45.279 46.2903 45.1647 46.078 44.9362 45.9374C44.7077 45.794 44.3629 45.7222 43.9019 45.7222H41.724V47.4395H43.9019ZM46.1685 45.081C46.657 45.1864 47.0353 45.3811 47.3032 45.6651C47.5712 45.9492 47.7051 46.2976 47.7051 46.7104C47.7051 47.3429 47.5764 47.8895 47.0012 48.1998C46.4259 48.5102 45.5513 48.5902 44.377 48.5902H39.4485V42.033H44.0165C45.242 42.033 46.1284 42.095 46.6761 42.3702C47.2277 42.6455 47.3446 43.1617 47.3446 43.7678C47.3446 44.087 47.2442 44.3593 47.0432 44.5847C46.8422 44.8072 46.5507 44.9727 46.1685 45.081Z" fill="white" stroke="white"/>
<path d="M18.5341 32.6855V39.2537H16.3732V34.7488L13.1585 39.2537H10.6128V32.6855H12.7737V37.1904L15.9884 32.6855H18.5341Z" fill="white" stroke="white"/>
<path d="M20.647 32.6892H25.0608C26.1838 32.6892 27.0447 32.7998 27.6437 33.1716C28.2465 33.5406 28.3888 34.143 28.3888 34.8281C28.3888 35.5162 28.2466 36.0462 27.6437 36.418C27.0447 36.7869 26.1838 36.9714 25.0608 36.9714H22.9227V39.2465H20.647V32.6892ZM22.9227 33.9146V35.746H24.6594C25.1007 35.746 25.4415 35.667 25.6819 35.5089C25.9222 35.3478 26.0424 35.1209 26.0424 34.8281C26.0424 34.5353 25.9223 34.3099 25.6819 34.1517C25.4415 33.9936 25.1007 33.9146 24.6594 33.9146H22.9227Z" fill="white" stroke="white"/>
<path d="M34.0434 33.7959C33.3499 33.7959 32.812 33.9862 32.4298 34.3669C32.0476 34.7475 31.8565 35.2833 31.8565 35.9744C31.8565 36.6624 32.0476 37.1968 32.4298 37.5774C32.812 37.9581 33.3499 38.1484 34.0434 38.1484C34.7408 38.1484 35.2806 37.9581 35.6628 37.5774C36.045 37.1968 36.2361 36.6624 36.2361 35.9744C36.2361 35.2833 36.045 34.7475 35.6628 34.3669C35.2806 33.9862 34.7408 33.7959 34.0434 33.7959ZM34.0434 32.5706C35.4619 32.5706 36.573 32.8721 37.3768 33.4753C38.1807 34.0785 38.5825 34.9115 38.5825 35.9744C38.5825 37.0343 38.1807 37.8658 37.3768 38.469C36.573 39.0722 35.4619 39.3738 34.0434 39.3738C32.6288 39.3738 31.5177 39.0722 30.7099 38.469C29.9061 37.8658 29.5042 37.0343 29.5042 35.9744C29.5042 34.9115 29.9061 34.0785 30.7099 33.4753C31.5177 32.8721 32.6288 32.5706 34.0434 32.5706Z" fill="white" stroke="white"/>
<path d="M44.6783 35.2278C45.0369 35.2278 45.3087 35.1692 45.4939 35.0521C45.6791 34.935 45.7717 34.7622 45.7717 34.5338C45.7717 34.3084 45.6791 34.1371 45.4939 34.02C45.3087 33.8999 45.0369 33.8399 44.6783 33.8399H42.5772V35.2278H44.6783ZM44.7552 38.0958C45.2122 38.0958 45.555 38.024 45.7836 37.8806C46.016 37.7371 46.1323 37.5204 46.1323 37.2305C46.1323 36.9465 46.018 36.7342 45.7895 36.5937C45.5609 36.4502 45.2162 36.3785 44.7552 36.3785H42.5772V38.0958H44.7552ZM47.0217 35.7373C47.5103 35.8427 47.8886 36.0374 48.1565 36.3214C48.4245 36.6054 48.5584 36.9538 48.5584 37.3667C48.5584 37.9991 48.4292 38.546 47.8539 38.8564C47.2786 39.1667 46.404 39.2465 45.2298 39.2465H40.3018V32.6892H44.8693C46.0947 32.6892 46.9811 32.7515 47.5288 33.0268C48.0805 33.302 48.1979 33.818 48.1979 34.424C48.1979 34.7432 48.0975 35.0155 47.8964 35.241C47.6955 35.4635 47.4039 35.6289 47.0217 35.7373Z" fill="white" stroke="white"/>
<path d="M58.338 35.1529C58.2721 34.5877 57.8659 33.9102 57.4574 33.5423C56.7194 32.8784 55.5202 32.5105 54.0837 32.5105C51.369 32.5105 49.6821 33.8204 49.6821 35.9469C49.6821 38.0553 51.3426 39.3653 54.0178 39.3653C56.4031 39.3653 58.2194 38.4232 58.338 36.9248H55.8407C55.7089 37.7593 54.7309 38.0764 53.9334 38.0764C53.1359 38.0764 52.0261 37.3914 52.0261 35.9648C52.0261 34.5203 53.1359 33.8177 53.9334 33.8177C54.7309 33.8177 55.6897 34.27 55.8407 35.1529H58.338Z" fill="white" stroke="white"/>
<path d="M77.6254 32.6855V39.2537H75.4645V34.7488L72.2498 39.2537H69.7041V32.6855H71.865V37.1904L75.0797 32.6855H77.6254Z" fill="white" stroke="white"/>
<path d="M81.5457 30.3738C81.6088 30.7521 81.8107 31.0411 82.1501 31.2406C82.4895 31.4371 83.1902 31.5358 83.7743 31.5358C84.3585 31.5358 85.0591 31.4371 85.3985 31.2406C85.738 31.0411 85.939 30.7521 86.0022 30.3738H85.1551C85.0722 30.5527 84.9366 30.6863 84.7472 30.7743C84.5578 30.8623 84.0743 30.9067 83.7743 30.9067C83.4744 30.9067 82.9909 30.8623 82.8015 30.7743C82.612 30.6863 82.4756 30.5527 82.3927 30.3738H81.5457ZM79.8137 32.6855V39.2539H82.359L85.5737 34.7489V39.2539H87.7349V32.6855H85.1888L81.9741 37.1905V32.6855H79.8137Z" fill="white" stroke="white"/>
<path d="M60.0911 32.6887V39.2464H62.3666V38.1543L64.0311 36.6304L65.7751 39.2464H68.7168L65.717 35.0868L68.3355 32.6887H65.2343L62.3666 35.3138V32.6887H60.0911Z" fill="white" stroke="white"/>
<path d="M1 32.6887V39.2464H3.27553V38.1543L4.94004 36.6304L6.68399 39.2464H9.62566L6.62594 35.0868L9.24441 32.6887H6.14319L3.27553 35.3138V32.6887H1Z" fill="white" stroke="white"/>
<path d="M48.2012 0.5L51.6191 6.8252L51.6904 6.95703L51.8213 7.02734L58.1465 10.4453V18.1123L51.8213 21.5293L51.6895 21.6006L51.6182 21.7324L48.2012 28.0576H40.5332L37.1152 21.7324L37.0449 21.6006L36.9131 21.5293L30.5889 18.1123V10.4443L36.9131 7.02734L37.0449 6.95703L37.1152 6.8252L40.5332 0.5H48.2012ZM34.2803 14.2783L34.6338 14.6318L44.0137 24.0127L44.3672 24.3662L54.4551 14.2783L54.1016 13.9248L44.7207 4.54492L44.3672 4.19141L34.2803 14.2783Z" fill="#FF0000" stroke="white"/>
<path d="M45.2463 1.66406L36.5061 10.4033L41.2297 1.66406H45.2463Z" fill="#FEF300" stroke="white"/>
<path d="M40.4919 22.1389L31.7527 17.4163V13.3997L40.4919 22.1389Z" fill="#FEF300" stroke="white"/>
<path d="M47.5049 26.8936H43.4883L52.2275 18.1533L47.5049 26.8936Z" fill="#FEF300" stroke="white"/>
<path d="M56.9822 11.1401V15.1577L48.2419 6.41748L56.9822 11.1401Z" fill="#FEF300" stroke="white"/>
</svg>
