<svg width="127" height="50" viewBox="0 0 127 50" fill="none" xmlns="http://www.w3.org/2000/svg">
<g clip-path="url(#clip0_23_19)">
<path d="M0.5 27.7258C2.65979 32.7941 7.68713 36.3495 13.5461 36.3495C11.3863 31.279 6.35896 27.7258 0.5 27.7258Z" fill="#12B36A"/>
<path d="M13.5471 36.3494C17.8511 36.3494 21.557 33.7915 23.2291 30.1145C18.9261 30.1145 15.2203 32.6724 13.5471 36.3494Z" fill="#12B36A"/>
<path fill-rule="evenodd" clip-rule="evenodd" d="M13.5471 29.2617C19.4182 29.2617 24.1779 24.5031 24.1779 18.6308C24.1779 12.7608 19.4182 8 13.5471 8C7.67487 8 2.91626 12.7608 2.91626 18.6308C2.91626 24.5031 7.67487 29.2617 13.5471 29.2617ZM13.5471 23.947C16.4821 23.947 18.8619 21.5671 18.8619 18.631C18.8619 15.6949 16.4821 13.3161 13.5471 13.3161C10.6109 13.3161 8.23109 15.6949 8.23109 18.631C8.23109 21.5671 10.6109 23.947 13.5471 23.947Z" fill="#FEBE10"/>
<path d="M81.9449 18.631H86.3916V35.8673H81.9449V29.1546H74.1805V35.8673H69.7337V18.631H74.1805V24.9832H81.9449V18.631ZM88.4861 22.9064H94.0222V35.8673H98.4689V22.9064H103.938V18.631H88.4861V22.9064ZM125.5 32.1183V35.7821C124.742 36.1615 123.795 36.3505 122.689 36.3505C120.379 36.3505 119.216 35.3453 118.75 33.7263L118.676 33.8347C117.331 35.5234 115.47 36.3505 113.057 36.3505C110.746 36.3505 108.781 35.4891 107.127 33.7307C105.507 31.9724 104.68 29.8004 104.68 27.2492C104.68 24.7001 105.507 22.5624 107.127 20.8041C108.781 19.0468 110.746 18.1489 113.057 18.1489C115.363 18.1489 117.165 18.9075 118.494 20.4524V18.6321H122.941V30.8245C122.941 31.8662 123.415 32.4026 124.363 32.4026C124.806 32.4015 125.185 32.3074 125.5 32.1183ZM118.676 27.248C118.676 25.8369 118.228 24.6647 117.297 23.7678C116.401 22.8378 115.263 22.3888 113.884 22.3888C112.505 22.3888 111.368 22.8367 110.471 23.7678C109.575 24.6647 109.127 25.8369 109.127 27.248C109.127 28.6625 109.575 29.8347 110.471 30.7659C111.368 31.6616 112.505 32.1095 113.884 32.1095C115.263 32.1095 116.401 31.6616 117.297 30.7659C118.228 29.8347 118.676 28.6625 118.676 27.248ZM33.0992 18.631L32.9665 25.1071C32.9355 27.7291 32.8404 29.0241 32.4611 30.5071C32.1138 31.9292 31.4503 32.3307 30.4097 32.3307C30.0613 32.3307 29.7461 32.2986 29.4929 32.2035V35.8673C29.8401 36.0564 30.4096 36.1504 31.1672 36.1504C34.2935 36.0564 35.8097 34.5811 36.5683 31.9281C37.1047 30.0327 37.1998 28.5795 37.2949 26.401L37.3944 22.9052H42.9161V35.8662H47.3628V18.6299H33.0992V18.631ZM54.5157 28.4126C54.9945 31.3542 57.3268 32.3174 59.6934 32.3174C61.2615 32.3174 62.9049 31.7047 63.9157 30.788L66.6582 33.5472C65.0204 35.3608 62.7401 36.3505 59.6237 36.3505C55.261 36.3505 49.9981 33.775 49.9981 27.2492C49.9981 20.7245 55.0664 18.1489 59.3705 18.1489C64.8147 18.1489 67.0674 20.7068 67.0674 23.5743C67.0685 28.2622 61.11 30.4275 54.5157 28.4126ZM62.2402 24.0819C62.2402 22.7449 60.9176 22.1477 59.4357 22.1477C57.172 22.1477 55.2102 23.1032 54.6141 25.5627C59.2267 26.8953 62.2402 25.9011 62.2402 24.0819Z" fill="white"/>
</g>
<defs>
<clipPath id="clip0_23_19">
<rect width="126" height="50" fill="white" transform="translate(0.5)"/>
</clipPath>
</defs>
</svg>
