<svg width="314" height="50" viewBox="0 0 314 50" fill="none" xmlns="http://www.w3.org/2000/svg">
<path d="M83.3389 24.7965C83.3389 27.1379 82.7175 28.9637 81.4781 30.2724C80.2353 31.581 78.6162 32.2344 76.6173 32.2344C74.7893 32.2344 73.2634 31.6655 72.0396 30.5293C70.8175 29.3931 70.2047 27.8948 70.2047 26.0362V23.5569C70.2047 21.6637 70.8175 20.1569 72.0396 19.0379C73.2652 17.9172 74.7721 17.3586 76.5655 17.3586C78.5644 17.3586 80.1921 18.0137 81.4505 19.3224C82.7106 20.631 83.3389 22.4551 83.3389 24.7965ZM63.0171 48.0379H70.2047V35.5913C71.1368 36.3844 72.2554 37.0224 73.5655 37.5034C74.8909 37.9874 76.2919 38.232 77.7031 38.2258C79.9091 38.2258 82.0011 37.7172 83.9862 36.7017C85.9678 35.6879 87.58 34.1706 88.8194 32.1568C90.0622 30.1431 90.6836 27.6896 90.6836 24.7948C90.6836 21.9051 90.0881 19.45 88.8971 17.4362C87.7095 15.4224 86.1836 13.9069 84.3228 12.8913C82.4586 11.8741 80.5287 11.3672 78.5299 11.3672C75.1864 11.3672 72.4107 12.4706 70.2047 14.6741V11.8844H63.0171V48.0379ZM135.368 11.8844H140.85V17.05H135.368V29.7569C135.368 30.581 135.61 31.2189 136.093 31.6655C136.575 32.1137 137.263 32.3379 138.161 32.3379C138.713 32.3379 139.402 32.2172 140.229 31.9758L140.591 32.1827V37.7086C139.109 38.0534 137.591 38.2258 136.041 38.2258C133.626 38.2258 131.714 37.5706 130.3 36.262C128.886 34.9551 128.18 32.9913 128.18 30.3741V17.0517H123.579V11.8844H128.18V4.49823H129.113L135.368 6.6672V11.8844ZM157.112 17.3327C156.336 16.6965 155.379 16.3775 154.242 16.3775C153.379 16.3775 152.647 16.5586 152.044 16.9206C151.44 17.2827 151.14 17.7724 151.14 18.3913C151.14 19.15 151.623 19.7706 152.588 20.2517C153.553 20.7344 155.327 21.3206 157.913 22.0069C160.568 22.731 162.515 23.6862 163.756 24.8741C164.999 26.0637 165.619 27.6724 165.619 29.7017C165.619 31.3224 165.196 32.7775 164.352 34.0672C163.506 35.3603 162.299 36.3758 160.732 37.1155C159.161 37.8569 157.345 38.2258 155.277 38.2258C152.243 38.2258 149.769 37.5637 147.855 36.2379C145.942 34.9103 144.641 33.0431 143.952 30.6327L144.159 29.9603L149.692 28.3086C150.313 31.2017 152.191 32.6465 155.327 32.6465C156.398 32.6465 157.268 32.4241 157.939 31.9758C158.612 31.5275 158.947 30.9086 158.947 30.1172C158.947 29.2896 158.56 28.6448 157.784 28.1793C157.009 27.7137 155.5 27.1896 153.261 26.6034C150.536 25.9517 148.485 24.9948 147.106 23.7379C145.727 22.481 145.038 20.8189 145.038 18.7534C145.038 17.3775 145.425 16.1293 146.201 15.0086C146.978 13.8896 148.071 13.0034 149.484 12.3482C150.898 11.6948 152.517 11.3672 154.345 11.3672C157.104 11.3672 159.344 11.962 161.067 13.15C162.791 14.3379 163.912 16.0155 164.429 18.1844L164.17 18.7534L158.638 20.0982C158.396 18.8913 157.887 17.9706 157.112 17.3327ZM176.928 15.0862C177.964 13.9844 179.272 13.0896 180.859 12.4C182.44 11.7123 184.148 11.3606 185.873 11.3672C188.666 11.3672 190.924 12.1775 192.648 13.7948C194.371 15.4155 195.234 17.6 195.234 20.3551V37.7069H187.995V22.1603C187.995 20.6465 187.572 19.5 186.728 18.7258C185.882 17.95 184.787 17.5637 183.443 17.5637C182.174 17.5625 180.926 17.8917 179.823 18.5189C178.658 19.1825 177.666 20.1118 176.928 21.231V37.7069H169.687V0.00512695H176.927L176.928 15.0862ZM214.101 17.6172C216.098 17.6172 217.736 18.2637 219.012 19.5551C220.287 20.8448 220.926 22.5931 220.926 24.7965C220.926 27 220.287 28.7482 219.012 30.0379C217.736 31.331 216.098 31.9758 214.099 31.9758C212.1 31.9758 210.453 31.331 209.162 30.0396C207.868 28.7482 207.222 27 207.222 24.7965C207.222 22.5931 207.869 20.8448 209.162 19.5551C210.453 18.262 212.102 17.6172 214.101 17.6172ZM213.845 11.3672C211.123 11.3672 208.691 11.9534 206.556 13.1241C204.476 14.2381 202.742 15.8992 201.54 17.9275C200.331 19.9586 199.729 22.2482 199.729 24.7965C199.729 27.3448 200.333 29.6344 201.54 31.6655C202.741 33.6942 204.476 35.3554 206.556 36.4689C208.691 37.6413 211.123 38.2258 213.845 38.2258C216.535 38.2258 218.948 37.6396 221.085 36.4689C223.165 35.3554 224.899 33.6942 226.101 31.6655C227.309 29.6344 227.911 27.3448 227.911 24.7965C227.911 22.2482 227.307 19.9586 226.101 17.9275C224.898 15.9 223.163 14.2391 221.085 13.1241C218.948 11.9517 216.535 11.3672 213.845 11.3672ZM250.841 19.3224C252.1 20.631 252.728 22.4551 252.728 24.7965C252.728 27.1379 252.108 28.9637 250.867 30.2724C249.626 31.581 248.005 32.2344 246.007 32.2344C244.179 32.2344 242.653 31.6655 241.431 30.5293C240.205 29.3931 239.594 27.8948 239.594 26.0362V23.5569C239.594 21.6637 240.207 20.1569 241.431 19.0379C242.653 17.9172 244.163 17.3586 245.955 17.3586C247.954 17.3586 249.583 18.0137 250.841 19.3224ZM232.406 48.0396H239.594V35.5913C240.526 36.3844 241.646 37.0224 242.955 37.5034C244.267 37.9844 245.644 38.2258 247.092 38.2258C249.279 38.2301 251.434 37.7073 253.375 36.7017C255.357 35.6879 256.969 34.1706 258.209 32.1568C259.451 30.1431 260.073 27.6896 260.073 24.7948C260.073 21.9051 259.477 19.45 258.288 17.4362C257.097 15.4224 255.573 13.9069 253.712 12.8913C251.85 11.8741 249.918 11.3672 247.919 11.3672C244.576 11.3672 241.8 12.4706 239.594 14.6741V11.8844H232.406V48.0396Z" fill="#E9531E"/>
<path d="M272.569 14.9827C273.462 13.9113 274.549 13.0175 275.774 12.3482C276.997 11.6902 278.367 11.3527 279.756 11.3671C280.792 11.3671 281.619 11.5051 282.238 11.7809L281.306 17.462L280.945 17.824C280.255 17.6516 279.67 17.5654 279.188 17.5654C277.773 17.5654 276.499 17.962 275.361 18.7534C274.222 19.5465 273.293 20.6999 272.569 22.2137V37.7085H265.329V11.8844H272.569V14.9827ZM304.25 34.5068C301.94 36.9861 299.13 38.2258 295.821 38.2258C292.994 38.2258 290.771 37.3827 289.15 35.6947C287.529 34.0068 286.719 31.7534 286.719 28.9292V11.8844H293.959V27.4309C293.959 28.912 294.339 30.0482 295.098 30.8396C295.854 31.6327 296.924 32.0292 298.303 32.0292C299.543 32.0292 300.682 31.6758 301.716 30.9689C302.77 30.242 303.638 29.2774 304.25 28.1534V11.8844H311.489V37.7068H304.25V34.5068Z" fill="#1F6EB4"/>
<path d="M104.334 18.1862C105.473 17.2552 106.799 16.7897 108.316 16.7897C110.004 16.7897 111.418 17.2552 112.556 18.1862C113.695 19.1155 114.347 20.3552 114.52 21.9052H102.109C102.454 20.3535 103.196 19.1155 104.334 18.1862ZM120.157 30.0138L114.418 28.4104C113.451 31.0655 111.487 32.3897 108.523 32.3897C106.695 32.3897 105.178 31.8655 103.973 30.8138C102.765 29.7638 102.074 28.3431 101.902 26.5535H121.399V24.6414C121.399 21.9224 120.855 19.5621 119.769 17.5655C118.725 15.6114 117.124 14.0115 115.167 12.969C113.184 11.9018 110.917 11.3673 108.366 11.3673C106.022 11.3673 103.833 11.9362 101.8 13.0724C99.7791 14.1963 98.0933 15.8361 96.915 17.8242C95.6895 19.8569 95.0784 22.1811 95.0784 24.7966C95.0784 27.4483 95.648 29.7897 96.7838 31.8207C97.8806 33.8121 99.5215 35.4511 101.515 36.5466C103.533 37.6673 105.817 38.2259 108.368 38.2259C111.504 38.2259 114.133 37.5104 116.253 36.0828C118.124 34.8224 119.529 33.0052 120.475 30.6328L120.157 30.0138ZM44.8202 22.0207C44.2678 18.8431 42.5348 9.25347 41.3507 2.70692C40.8656 0.0379571 37.5411 -0.931009 35.6941 1.05692L27.7504 9.61209H18.1324L10.187 1.05692C8.34003 -0.932733 5.01376 0.039681 4.53044 2.70692C3.34631 9.25347 1.61327 18.8449 1.06091 22.0207C0.862402 23.1621 0.194387 28.1069 2.09659 33.2397C5.1415 41.4638 13.3562 48.0397 22.9397 48.0397C32.5249 48.0397 40.7396 41.4638 43.7863 33.2397C45.6885 28.1086 45.0187 23.1621 44.8202 22.0207Z" fill="#E9531E"/>
</svg>
