<svg width="211" height="50" viewBox="0 0 211 50" fill="none" xmlns="http://www.w3.org/2000/svg">
<path fill-rule="evenodd" clip-rule="evenodd" d="M55.4348 35.4136V15.4949H71.5736V35.4136H67.6314V19.3022H59.376V35.4136H55.4348ZM83.1049 23.9355H80.8677C79.0037 23.9355 78.0711 24.6022 78.0711 25.9063C78.0711 27.1845 78.9777 27.823 80.7887 27.823C81.5881 27.823 82.3595 27.7709 83.1049 27.6376V23.9355ZM86.7539 20.9001V35.4126H83.1049V30.3772C82.398 30.5063 81.6495 30.6761 80.745 30.7022L77.725 35.4126H73.6237L77.2311 30.1897C75.3391 29.3907 74.3431 28.0105 74.3431 25.8532C74.3431 22.897 76.4993 20.9001 80.7617 20.9001H86.7539ZM111.415 22.1251C112.533 23.2167 113.092 24.7084 113.092 26.6522V35.4126H109.338V27.3438C109.338 25.1345 108.167 23.9626 106.435 23.9626C104.543 23.9626 103.239 25.3209 103.239 27.4511V35.4136H99.4839V27.372C99.4839 25.2147 98.3382 23.9626 96.5543 23.9626C94.7173 23.9626 93.3856 25.3209 93.3856 27.4782V35.4136H89.6305V20.9001H93.3055V22.9772C94.131 21.4595 95.8349 20.4751 97.7259 20.5011C99.5369 20.5011 101.215 21.3803 101.987 23.0574C103.053 21.4595 105.023 20.5011 107.18 20.5011C108.912 20.5011 110.323 21.0313 111.415 22.1251ZM142.495 31.1251C143.241 30.3261 143.614 29.3417 143.614 28.1709C143.614 26.998 143.241 26.0136 142.495 25.2136C141.75 24.4157 140.79 24.0157 139.593 24.0157C138.421 24.0157 137.462 24.4157 136.717 25.2136C135.971 26.0136 135.598 26.998 135.598 28.1709C135.598 29.3417 135.972 30.3272 136.717 31.1261C137.463 31.9251 138.421 32.324 139.593 32.324C140.79 32.324 141.75 31.9251 142.495 31.1261M145.372 22.7376C146.73 24.2022 147.396 26.0136 147.396 28.1438C147.396 30.274 146.704 32.0845 145.345 33.5501C143.987 35.0136 142.283 35.7584 140.231 35.7584C138.448 35.7584 136.801 34.9792 135.678 33.6001V41.3782H131.923V20.9001H135.651V22.8042C136.843 21.3167 138.421 20.5282 140.258 20.5282C142.309 20.5282 144.013 21.273 145.372 22.7376ZM156.531 32.298C157.676 32.298 158.608 31.898 159.38 31.099C160.153 30.274 160.552 29.2886 160.552 28.1438C160.552 26.998 160.153 26.0136 159.381 25.2147C158.608 24.4157 157.676 24.0167 156.531 24.0167C155.385 24.0167 154.427 24.4157 153.655 25.2147C152.883 26.0136 152.51 26.999 152.51 28.1438C152.51 29.2886 152.883 30.274 153.655 31.099C154.427 31.898 155.385 32.297 156.531 32.297M150.938 22.7376C152.404 21.2459 154.268 20.5011 156.531 20.5011C158.794 20.5011 160.658 21.2459 162.124 22.7376C163.588 24.2022 164.307 26.0136 164.307 28.1438C164.307 30.3001 163.588 32.1115 162.124 33.5761C160.658 35.0397 158.794 35.7865 156.531 35.7865C154.268 35.7865 152.404 35.0397 150.938 33.5761C149.473 32.1115 148.755 30.3011 148.755 28.1438C148.755 26.0136 149.473 24.2022 150.938 22.7376ZM174.88 20.9001H178.636V35.4136H174.88V30.5282C173.781 31.1563 172.591 31.472 171.657 31.472C169.927 31.472 168.649 31.1522 167.503 30.3803C166.36 29.5553 165.72 28.0105 165.72 25.773V20.9001H169.448V25.5074C169.448 27.2115 170.327 28.0636 172.085 28.0636C173.07 28.0636 173.91 27.9261 174.881 27.5376V20.9001H174.88ZM191.047 35.4136L185.268 28.7115V35.4136H181.513V20.8782H185.268V26.6365L190.541 20.9001H195.281L188.81 27.622L195.655 35.4136H191.047Z" fill="#EB2316"/>
<path fill-rule="evenodd" clip-rule="evenodd" d="M205.548 25.1876C204.776 24.3616 203.816 23.9626 202.645 23.9626C201.447 23.9626 200.488 24.3616 199.715 25.1876C198.97 26.0136 198.597 26.998 198.597 28.1428C198.597 29.3147 198.97 30.3001 199.742 31.1261C200.515 31.9511 201.473 32.3501 202.645 32.3501C203.816 32.3501 204.776 31.9511 205.548 31.1261C206.32 30.3001 206.72 29.3147 206.72 28.1428C206.72 26.998 206.32 26.0136 205.548 25.1876ZM206.667 20.9001H210.235V35.4126H206.667V33.4959C205.419 35.0084 203.87 35.7595 202.032 35.7595C199.955 35.7595 198.224 35.0407 196.866 33.5761C195.508 32.1116 194.843 30.2741 194.843 28.0907C194.843 25.9063 195.535 24.0959 196.893 22.6845C198.251 21.247 199.982 20.5282 202.032 20.5282C203.843 20.5282 205.441 21.3511 206.667 22.8032V20.9001ZM123.48 17.2522C123.48 16.0011 124.466 15.0688 125.743 15.0688C126.995 15.0688 127.954 16.0543 127.954 17.2522C127.954 18.5574 126.995 19.5157 125.743 19.5157C124.466 19.5157 123.48 18.5574 123.48 17.2522ZM118.846 26.6793H126.223C125.877 24.7876 124.519 23.6438 122.602 23.6438C120.709 23.6438 119.299 24.7886 118.846 26.6793ZM119.938 15.0688C121.19 15.0688 122.175 16.0543 122.175 17.2522C122.175 18.5574 121.217 19.5157 119.938 19.5157C118.659 19.5157 117.701 18.5574 117.701 17.2522C117.701 16.0543 118.686 15.0688 119.938 15.0688ZM129.738 29.4751H118.846C119.379 31.5251 120.791 32.5636 123.081 32.5636C124.652 32.5636 126.401 31.9751 127.728 30.923L129.239 33.3011C127.407 35.0168 125.318 35.7324 122.921 35.7324C120.363 35.7324 118.419 34.9876 117.061 33.523C115.704 32.0584 115.037 30.247 115.037 28.1438C115.037 25.9334 115.73 24.123 117.142 22.6855C118.553 21.247 120.364 20.5272 122.602 20.5272C124.706 20.5272 126.463 21.1928 127.82 22.498C129.179 23.8032 129.871 25.5605 129.871 27.823C129.871 28.3293 129.819 28.8897 129.738 29.4751Z" fill="#EB2316"/>
<path fill-rule="evenodd" clip-rule="evenodd" d="M24.9775 0C11.4803 0 0.5 11.0021 0.5 24.526C0.5 38.05 11.4803 49.0521 24.9775 49.0521C38.4736 49.0521 49.4549 38.05 49.4549 24.526C49.4549 11.0021 38.4736 0 24.9775 0Z" fill="white"/>
<path fill-rule="evenodd" clip-rule="evenodd" d="M37.33 6.93433C35.4619 11.7354 31.2088 12.7343 25.0482 12.7343C24.387 12.7343 23.732 12.7239 23.0999 12.7145C22.4886 12.7062 21.9106 12.6968 21.344 12.6968C20.8409 12.6968 20.3335 12.7031 19.8335 12.725C20.6964 10.602 22.0738 9.15933 24.0345 8.28433C26.7677 7.06558 30.321 7.05308 33.4565 7.0437C34.8225 7.03849 36.1303 7.03328 37.33 6.93433Z" fill="#008F32"/>
<path fill-rule="evenodd" clip-rule="evenodd" d="M39.2491 8.47508C36.4859 14.5063 30.3272 15.1105 25.0481 15.1105C23.889 15.1105 22.7787 15.0824 21.7505 15.0761L20.4209 20.2865C27.2303 14.724 36.2353 20.2386 35.2726 28.6324C34.6239 34.2855 30.6017 37.9824 26.3466 39.0449C21.711 40.2032 16.5754 38.4699 14.2726 33.7365C14.0283 33.2365 13.6031 32.2345 13.441 31.699L18.3292 30.4407C18.4155 30.723 18.562 30.9959 18.7159 31.2449C21.9886 36.5334 28.6202 33.8886 29.3687 28.4022C30.1308 22.8209 22.315 19.848 18.7533 26.3709L14.4182 24.5199L14.3433 24.4865L16.434 16.0772C16.5629 15.4792 16.9974 13.8095 17.0723 13.5355C19.4353 4.82925 27.0795 4.69175 33.2111 4.66883C30.6755 3.61154 27.8956 3.02612 24.9774 3.02612C13.126 3.02612 3.52002 12.6511 3.52002 24.5261C3.52002 36.4011 13.126 46.0261 24.9774 46.0261C36.8289 46.0261 46.4349 36.4011 46.4349 24.5261C46.4349 18.1428 43.657 12.4126 39.2491 8.47508Z" fill="#EB2316"/>
</svg>
