<svg width="324" height="50" viewBox="0 0 324 50" fill="none" xmlns="http://www.w3.org/2000/svg">
<g clip-path="url(#clip0_25_39)">
<path d="M0 24.6267C0 21.8552 0 20.4672 0.128402 19.3037C1.22441 9.20293 9.21286 1.22309 19.3245 0.128264C20.4939 0 21.8788 0 24.6532 0C27.4276 0 28.8171 0 29.9819 0.128264C40.0936 1.22767 48.0774 9.20293 49.178 19.3037C49.3064 20.4718 49.3064 21.8552 49.3064 24.6267V25.3733C49.3064 28.1448 49.3064 29.5328 49.178 30.6963C48.0774 40.7971 40.0936 48.7723 29.9819 49.8717C28.8125 50 27.4276 50 24.6532 50C21.8788 50 20.4893 50 19.3245 49.8717C9.21286 48.7769 1.22441 40.8016 0.128402 30.7009C0 29.5328 0 28.1493 0 25.3779V24.6312V24.6267Z" fill="#007BFC"/>
<path fill-rule="evenodd" clip-rule="evenodd" d="M15.7566 36.1703C15.5273 36.3994 15.5273 36.7658 15.7566 36.9903L20.2828 41.5116C20.5121 41.7406 20.879 41.7406 21.1037 41.5116L36.8604 25.7718C37.0897 25.5427 37.0897 25.1763 36.8604 24.9518L32.3343 20.4305C32.105 20.2015 31.7381 20.2015 31.5134 20.4305L15.7566 36.1703ZM21.1037 9.20743C20.8744 8.97838 20.5075 8.97838 20.2828 9.20743L15.752 13.7333C15.5228 13.9624 15.5228 14.3288 15.752 14.5533L24.2495 23.0416C24.4788 23.2706 24.8457 23.2706 25.0704 23.0416L29.6011 18.5157C29.8304 18.2867 29.8304 17.9202 29.6011 17.6957L21.1037 9.20743Z" fill="white"/>
<path d="M138.367 8.78149H149.933L159.255 33.4723L168.51 8.78149H179.671V41.7041H172.252V16.5369L162.594 41.7041H154.972L145.31 16.6697V41.7041H138.372V8.78149H138.367Z" fill="#007BFC"/>
<path d="M228.116 8.78149H253.631V41.7041H245.739V15.7215H235.329C235.26 20.3481 235.127 26.5369 234.99 30.0046C234.715 38.6441 232.202 41.7041 224.782 41.7041H221.246V34.7641H223.218C226.552 34.7641 227.639 33.2661 227.845 28.5754C228.047 23.541 228.116 13.541 228.116 8.78149Z" fill="#007BFC"/>
<path d="M293.995 8.78149H324V15.7215H312.912V41.7041H305.084V15.7215H293.995V8.78149Z" fill="#007BFC"/>
<path d="M113.508 35.9597C110.417 35.8727 108.628 34.0862 108.628 31.8232C108.628 29.9497 109.472 29.0335 110.586 28.383C111.756 27.7005 113.278 27.4668 115.64 27.3798C117.91 27.2974 119.758 27.2012 123.28 27.2012C123.28 32.8219 119.744 35.6437 115.356 35.9414C114.663 35.9872 114.237 35.9781 113.512 35.9597H113.508ZM117.942 8.10359H115.117C108.33 8.10359 103.185 12.2309 102.006 18.3693L109.22 19.5237C110.206 16.5965 112.471 14.6038 115.337 14.471C116.264 14.4252 116.044 14.4389 116.97 14.471C121.23 14.6267 123.156 16.6652 123.156 21.7087C115.081 21.7087 109.564 21.3285 105.501 24.0037C102.185 26.1888 100.764 28.6121 100.764 32.4417C100.764 37.9845 105.079 42.3775 112.04 42.3775C113.132 42.3775 112.687 42.3775 112.999 42.3775C117.919 42.3775 121.89 40.4627 123.505 38.1494V41.695H130.769V21.8507C130.769 14.1961 126.669 8.08984 117.933 8.08984L117.942 8.10359Z" fill="#007BFC"/>
<path d="M275.051 14.471C275.877 14.4252 276.17 14.4252 277 14.471C280.44 14.645 284.063 16.8759 284.411 21.3193H267.471C267.866 17.3569 271.048 14.6909 275.056 14.471H275.051ZM292.166 27.4668V24.3839C292.166 13.7609 285.489 8.26392 276.867 8.26392H275.18C265.903 8.26392 259.987 14.5855 259.68 23.509C259.639 24.8145 259.639 25.3597 259.68 27.1462C259.9 36.0285 266.123 42.0065 274.442 42.2218C275.964 42.2676 275.771 42.263 277.207 42.2218C284.448 42.0202 289.932 37.8379 291.551 32.3775L284.544 31.1544C282.834 34.5763 279.564 35.891 276.955 36.0193C276.129 36.0651 276.01 36.0514 275.184 36.0193C271.089 35.8498 267.425 32.6432 267.425 27.9845V27.4623H292.166V27.4668Z" fill="#007BFC"/>
<path d="M211.332 27.7097C211.24 32.3638 207.856 35.52 203.302 35.7491C202.426 35.7949 202.481 35.7949 201.61 35.7491C197.01 35.52 193.672 32.3593 193.58 27.7097C193.534 25.7766 193.534 24.6772 193.58 22.744C193.672 18.1357 197.01 14.9795 201.61 14.7505C202.486 14.7047 202.431 14.7047 203.302 14.7505C207.856 14.9795 211.24 18.1403 211.332 22.7899C211.378 24.723 211.378 25.7766 211.332 27.7097ZM219.091 22.3364C218.917 14.3702 212.487 8.26855 203.995 8.26855H200.917C192.42 8.26855 185.995 14.3702 185.821 22.3776C185.775 24.5993 185.775 25.8911 185.821 28.1128C185.995 36.1247 192.425 42.2218 200.917 42.2218H203.995C212.492 42.2218 218.917 36.1201 219.091 28.1128C219.137 25.8911 219.137 24.5581 219.091 22.3364Z" fill="#007BFC"/>
<path d="M88.5334 30.0872C87.6163 33.138 85.1629 35.2315 81.8611 35.6895C80.9119 35.8224 79.9672 35.7903 79.2014 35.685C75.0971 35.1123 72.208 32.034 72.1209 27.7097C72.075 25.7766 72.075 24.6772 72.1209 22.744C72.208 18.3877 75.2392 15.1994 79.4169 14.755C79.6599 14.7276 80.5679 14.6451 81.4484 14.7413C84.9657 15.1215 87.6117 17.2287 88.561 20.4353L96.2055 18.9557C94.5638 12.7074 88.8957 8.26855 81.6502 8.26855H79.4536C70.9561 8.26855 64.5314 14.3702 64.3571 22.3776C64.3113 24.5993 64.3113 25.8911 64.3571 28.1128C64.536 36.1247 70.9607 42.2218 79.4536 42.2218H81.6502C89.0333 42.2218 94.7564 37.6089 96.2697 31.1408L88.5289 30.0826H88.5334V30.0872Z" fill="#007BFC"/>
</g>
<defs>
<clipPath id="clip0_25_39">
<rect width="324" height="50" fill="white"/>
</clipPath>
</defs>
</svg>
