<svg width="233" height="40" viewBox="0 0 233 40" fill="none" xmlns="http://www.w3.org/2000/svg">
<g clip-path="url(#clip0_25_94)">
<path d="M219.115 18.0296H216.441V11.2245H219.115C221.285 11.2245 222.661 12.4627 222.661 14.6616C222.661 16.8312 221.285 18.0296 219.115 18.0296ZM212.489 18.0296H209.804C207.635 18.0296 206.268 16.8312 206.268 14.6616C206.268 12.4627 207.635 11.2245 209.804 11.2245H212.489V18.0296ZM219.225 7.54924H216.441V5.7497C216.441 5.44279 216.263 5.26428 215.955 5.26428H212.964C212.657 5.26428 212.489 5.44279 212.489 5.7497V7.54924H209.705C205.852 7.54924 202.246 10.4022 202.246 14.6616C202.246 18.8516 205.852 21.7044 209.705 21.7044H212.489V23.5104C212.489 23.8172 212.657 23.9859 212.964 23.9859H215.955C216.263 23.9859 216.441 23.8172 216.441 23.5104V21.7044H219.225C223.068 21.7044 226.673 18.8516 226.673 14.6616C226.673 10.4022 223.068 7.54924 219.225 7.54924ZM192.212 15.2292H187.219V9.04818H192.212C194.302 9.04818 195.511 10.316 195.511 12.1089C195.511 13.9317 194.302 15.2292 192.212 15.2292ZM192.212 5.26428H183.723C183.406 5.26428 183.237 5.44243 183.237 5.7497V23.5202C183.237 23.8275 183.406 23.9958 183.723 23.9958H186.744C187.051 23.9958 187.219 23.8275 187.219 23.5202V19.0131H192.212C196.362 19.0131 199.493 16.091 199.493 12.1089C199.493 8.25584 196.362 5.26428 192.212 5.26428ZM229.665 5.22476H229.318V4.68996H229.665C229.863 4.68996 229.932 4.79861 229.932 4.96724C229.932 5.12564 229.863 5.22476 229.665 5.22476ZM230.754 4.91785C230.754 4.44195 230.348 4.02602 229.734 4.02602H228.773C228.644 4.02602 228.575 4.09552 228.575 4.19466V6.10636C228.575 6.21537 228.644 6.27464 228.773 6.27464H229.12C229.259 6.27464 229.318 6.21537 229.318 6.10636V5.80897H229.734L229.863 6.16563C229.932 6.245 229.932 6.27464 230.071 6.27464H230.615C230.685 6.27464 230.685 6.21537 230.685 6.136L230.418 5.58143C230.615 5.44243 230.754 5.21489 230.754 4.91785ZM229.595 6.83944C228.575 6.83944 227.961 6.11624 227.961 5.21489C227.961 4.23416 228.575 3.58047 229.595 3.58047C230.615 3.58047 231.23 4.23416 231.23 5.21489C231.23 6.11624 230.615 6.83944 229.595 6.83944ZM229.595 2.82764C228.229 2.82764 227.139 3.82812 227.139 5.21489C227.139 6.61154 228.229 7.58238 229.595 7.58238C230.893 7.58238 231.983 6.58156 231.983 5.21489C231.983 3.85775 230.893 2.82764 229.595 2.82764ZM176.918 18.914C175.373 18.914 174.233 20.0831 174.233 21.5884C174.233 23.1043 175.373 24.273 176.918 24.273C178.463 24.273 179.592 23.1043 179.592 21.5884C179.592 20.0831 178.463 18.914 176.918 18.914ZM24.6338 18.7415C25.654 19.7321 27.0807 20.3068 28.7447 20.3068C29.9039 20.3068 30.9341 20.0192 31.8057 19.514C32.935 18.8505 33.7672 17.8102 34.2029 16.5324C34.2029 16.5324 34.2329 16.2946 34.4805 16.2946C34.7282 16.2946 34.7578 16.5324 34.7578 16.5324C35.2037 17.8102 36.0356 18.8505 37.1652 19.5042C38.0468 20.0192 39.0868 20.3068 40.2559 20.3068C41.9002 20.3068 43.3169 19.7321 44.3372 18.7514C41.9598 16.5126 38.4331 15.0958 34.4805 15.0958C30.5379 15.0958 27.0013 16.5126 24.6338 18.7415ZM34.4805 30.9755C33.5792 32.2437 32.4397 33.3134 31.1323 34.1357C31.1323 34.1851 31.1422 34.2348 31.1422 34.2941C31.1422 35.5027 32.6281 36.5332 34.3913 36.5332C36.1446 36.5332 37.6309 35.5027 37.6309 34.2941C37.6309 34.1953 37.6404 34.106 37.6605 34.0069C36.4219 33.2142 35.3424 32.1841 34.4805 30.9755Z" fill="#F7A600"/>
<path d="M178.186 5.20473H164.734C164.497 5.20473 164.259 5.37335 164.259 5.68027V23.4212C164.259 23.7281 164.427 23.9063 164.734 23.9063H167.755C168.063 23.9063 168.231 23.7281 168.231 23.4212V8.97873H178.186C178.493 8.97873 178.661 8.80059 178.661 8.49333V5.68027C178.661 5.44249 178.463 5.20473 178.186 5.20473ZM20.582 26.8844C20.582 27.4192 21.018 27.8553 21.5529 27.8553C22.088 27.8553 22.5237 27.4192 22.5237 26.8844C22.5237 26.3492 22.088 25.9135 21.5529 25.9135C21.018 25.9135 20.582 26.3492 20.582 26.8844ZM25.2676 28.1918C25.2676 28.8159 25.7728 29.3211 26.3873 29.3211C27.0114 29.3211 27.5165 28.8159 27.5165 28.1918C27.5165 27.5776 27.0114 27.0724 26.3873 27.0724C25.7728 27.0724 25.2676 27.5776 25.2676 28.1918ZM18.3927 5.51658C18.7197 5.77411 19.0961 5.89299 19.4824 5.89299C19.9875 5.89299 20.4931 5.67497 20.8395 5.24917C21.2953 4.68437 22.0679 3.88181 23.1774 3.25774C24.0195 2.78255 24.307 1.72245 23.8413 0.890239C23.3658 0.0481571 22.3057 -0.248883 21.4735 0.226662C19.8785 1.12801 18.7793 2.26713 18.1351 3.06971C17.5311 3.81266 17.6497 4.91227 18.3927 5.51658ZM47.4973 0.226662C46.6551 -0.248883 45.5954 0.0481571 45.1297 0.890239C44.6542 1.72245 44.9516 2.78255 45.7838 3.25774C46.9028 3.88181 47.6757 4.68437 48.1312 5.24917C48.478 5.67497 48.9733 5.89299 49.4883 5.89299C49.8647 5.89299 50.2514 5.77411 50.5781 5.51658C51.321 4.91227 51.4399 3.81266 50.8356 3.06971C50.1917 2.26713 49.0921 1.12801 47.4973 0.226662ZM37.6307 34.2941C37.6307 35.5028 36.1448 36.5329 34.3915 36.5329C32.6279 36.5329 31.1421 35.5028 31.1421 34.2941C31.1421 34.2349 31.1322 34.1851 31.1322 34.1357C32.4399 33.3135 33.5791 32.2435 34.4804 30.9756C35.3423 32.1842 36.4221 33.2143 37.6603 34.007C37.6406 34.1058 37.6307 34.195 37.6307 34.2941ZM48.2801 31.3223C47.0118 32.0554 45.5654 32.4417 44.0996 32.4417C40.5433 32.4417 37.4029 30.2425 36.2539 26.914C35.9071 25.9037 35.362 25.3787 34.4804 25.3787C33.6087 25.3787 33.0541 25.9037 32.7073 26.914C31.5682 30.2425 28.4179 32.4417 24.8714 32.4417C23.3954 32.4417 21.949 32.0554 20.691 31.3223C19.8588 30.8369 18.7991 31.1142 18.3136 31.9464C17.8381 32.7786 18.1153 33.8384 18.9475 34.3238C20.7407 35.3641 22.7812 35.9088 24.8714 35.9088C25.8917 35.9088 26.8823 35.7801 27.8333 35.5324C28.5071 38.0883 31.2807 40 34.4804 40C37.6801 40 40.4639 38.0883 41.1377 35.5324C42.0885 35.7801 43.0791 35.9088 44.0996 35.9088C46.18 35.9088 48.2303 35.3641 50.0235 34.3238C50.8553 33.8384 51.133 32.7786 50.6475 31.9464C50.172 31.1142 49.1021 30.8369 48.2801 31.3223ZM28.7449 8.49826C29.9137 8.49826 30.9541 8.78546 31.8257 9.30086C32.9451 9.95452 33.7671 10.9949 34.2031 12.2727C34.2031 12.2727 34.2726 12.5104 34.4804 12.5104C34.6984 12.5104 34.7676 12.2727 34.7676 12.2727C35.2036 10.9949 36.0259 9.96439 37.1453 9.30086C38.0269 8.78546 39.0771 8.49826 40.2557 8.49826C43.6636 8.49826 46.0706 10.9451 46.0706 14.4221C46.0706 17.83 43.6636 20.3065 40.2557 20.3065C39.087 20.3065 38.0467 20.0193 37.1651 19.5043C36.0358 18.8505 35.2036 17.8102 34.7581 16.5321C34.7581 16.5321 34.7284 16.2947 34.4804 16.2947C34.2327 16.2947 34.2031 16.5321 34.2031 16.5321C33.7671 17.8102 32.9353 18.8505 31.8057 19.5141C30.9339 20.0193 29.9038 20.3065 28.7449 20.3065C25.3075 20.3065 22.8902 17.83 22.8902 14.4221C22.8902 10.9451 25.3075 8.49826 28.7449 8.49826ZM18.8583 14.4221C18.8583 19.9597 23.3065 24.0611 28.7449 24.0611C30.8845 24.0611 32.8657 23.4169 34.4903 22.3075C36.1152 23.4169 38.1063 24.0611 40.2557 24.0611C45.6645 24.0611 50.1029 19.9597 50.1029 14.4221C50.1029 8.91453 45.6645 4.74364 40.2557 4.74364C38.1063 4.74364 36.1152 5.39769 34.4903 6.52694C32.8657 5.39769 30.8845 4.74364 28.7449 4.74364C23.3065 4.74364 18.8583 8.91453 18.8583 14.4221ZM29.8939 14.8977C31.3601 14.8977 32.5489 13.9367 32.5489 12.7482C32.5489 11.5692 31.3601 10.6083 29.8939 10.6083C28.4278 10.6083 27.2393 11.5692 27.2393 12.7482C27.2393 13.9367 28.4278 14.8977 29.8939 14.8977ZM41.4545 28.1918C41.4545 28.8159 41.9597 29.3211 42.5837 29.3211C43.1979 29.3211 43.7031 28.8159 43.7031 28.1918C43.7031 27.5776 43.1979 27.0724 42.5837 27.0724C41.9597 27.0724 41.4545 27.5776 41.4545 28.1918ZM41.4545 14.8977C42.9207 14.8977 44.1091 13.9367 44.1091 12.7482C44.1091 11.5692 42.9207 10.6083 41.4545 10.6083C39.9883 10.6083 38.7896 11.5692 38.7896 12.7482C38.7896 13.9367 39.9883 14.8977 41.4545 14.8977ZM46.4474 26.8844C46.4474 27.4192 46.8831 27.8553 47.4179 27.8553C47.9531 27.8553 48.3887 27.4192 48.3887 26.8844C48.3887 26.3492 47.9531 25.9135 47.4179 25.9135C46.8831 25.9135 46.4474 26.3492 46.4474 26.8844ZM89.2987 5.20966H73.9947C73.6773 5.20966 73.5093 5.37794 73.5093 5.68485V23.4254C73.5093 23.7327 73.6773 23.9108 73.9947 23.9108H77.0153C77.3227 23.9108 77.4913 23.7327 77.4913 23.4254V8.94379H85.792V23.4254C85.792 23.7327 85.97 23.9108 86.2773 23.9108H89.2987C89.6053 23.9108 89.774 23.7327 89.774 23.4254V5.68485C89.774 5.37794 89.6053 5.20966 89.2987 5.20966ZM61.5297 20.4451C58.1017 20.4451 55.6944 17.9683 55.6944 14.5699C55.6944 11.1127 58.1017 8.67539 61.5297 8.67539C64.9281 8.67539 67.3353 11.1127 67.3353 14.5699C67.3353 17.9683 64.9281 20.4451 61.5297 20.4451ZM61.5297 4.93061C56.1103 4.93061 51.6819 9.08139 51.6819 14.5699C51.6819 20.0983 56.1103 24.18 61.5297 24.18C66.9191 24.18 71.3473 20.0983 71.3473 14.5699C71.3473 9.08139 66.9191 4.93061 61.5297 4.93061ZM14.8652 13.5102V13.3021C16.2425 12.6483 16.8168 11.5187 16.8168 10.1123C16.8168 6.78339 13.3592 4.93061 9.51533 4.93061C6.59289 4.93061 3.84863 5.68345 1.52029 7.60539C1.27264 7.78386 1.31215 8.02166 1.45114 8.18993L3.05594 10.2209C3.23445 10.4587 3.44223 10.4587 3.70963 10.2509C5.18601 9.15126 6.83066 8.63586 9.30753 8.63586C11.7741 8.63586 12.8737 9.35906 12.8737 10.4587C12.8737 11.2415 12.3587 11.7964 11.2295 11.7964H6.21613C5.90921 11.7964 5.74093 11.9647 5.74093 12.2719V14.9866C5.74093 15.2935 5.90921 15.4618 6.21613 15.4618H11.0609C12.8046 15.4618 13.8051 16.1553 13.8051 17.6317C13.8051 19.3751 12.3982 20.4747 9.238 20.4747C6.38475 20.4747 4.87874 19.9597 3.0263 18.2854C2.71903 18.0078 2.51089 18.1069 2.34262 18.3451L0.618934 20.3361C0.450306 20.5837 0.450311 20.782 0.688084 21.0297C3.16495 23.358 5.77057 24.1803 9.16853 24.1803C13.9339 24.1803 17.7481 21.713 17.7481 17.7305C17.7481 15.9772 17.0249 14.2334 14.8652 13.5102ZM154.916 15.1495H149.943V8.97873H154.916C157.015 8.97873 158.215 10.2467 158.215 12.0296C158.215 13.8521 157.015 15.1495 154.916 15.1495ZM154.916 5.20473H146.447C146.139 5.20473 145.961 5.373 145.961 5.68027V23.4208C145.961 23.7277 146.139 23.9063 146.447 23.9063H149.467C149.775 23.9063 149.943 23.7277 149.943 23.4208V18.9236H154.916C159.066 18.9236 162.196 16.0114 162.196 12.0296C162.196 8.18606 159.066 5.20473 154.916 5.20473ZM134.097 20.4501C130.659 20.4501 128.262 17.9732 128.262 14.5753C128.262 11.1074 130.659 8.68033 134.097 8.68033C137.496 8.68033 139.893 11.1074 139.893 14.5753C139.893 17.9732 137.496 20.4501 134.097 20.4501ZM134.097 4.93555C128.669 4.93555 124.24 9.08633 124.24 14.5753C124.24 20.1033 128.669 24.1849 134.097 24.1849C139.477 24.1849 143.906 20.1033 143.906 14.5753C143.906 9.08633 139.477 4.93555 134.097 4.93555ZM123.411 5.20966H109.454C109.147 5.20966 108.979 5.37794 108.979 5.68485V8.49793C108.979 8.80519 109.147 8.98333 109.454 8.98333H113.466V23.4254C113.466 23.7327 113.635 23.9108 113.941 23.9108H116.963C117.269 23.9108 117.438 23.7327 117.438 23.4254V8.98333H123.411C123.718 8.98333 123.896 8.80519 123.896 8.49793V5.68485C123.896 5.37794 123.718 5.20966 123.411 5.20966ZM106.735 5.20473H92.312C92.0047 5.20473 91.8267 5.373 91.8267 5.67992V8.49299C91.8267 8.80026 92.0047 8.97839 92.312 8.97839H98.2753V23.4205C98.2753 23.7277 98.4533 23.9059 98.7607 23.9059H101.782C102.089 23.9059 102.257 23.7277 102.257 23.4205V8.97839H106.735C107.042 8.97839 107.21 8.80026 107.21 8.49299V5.67992C107.21 5.373 107.042 5.20473 106.735 5.20473Z" fill="#74A220"/>
</g>
<defs>
<clipPath id="clip0_25_94">
<rect width="232" height="40" fill="white" transform="translate(0.5)"/>
</clipPath>
</defs>
</svg>
