<svg width="21" height="20" viewBox="0 0 21 20" fill="none" xmlns="http://www.w3.org/2000/svg">
<path d="M10.5 8.41669C10.9142 8.41669 11.25 8.75247 11.25 9.16669V13.3334C11.25 13.7476 10.9142 14.0834 10.5 14.0834C10.0858 14.0834 9.75 13.7476 9.75 13.3334V9.16669C9.75 8.75247 10.0858 8.41669 10.5 8.41669Z"/>
<path d="M10.5 5.83331C10.9602 5.83331 11.3333 6.20641 11.3333 6.66665C11.3333 7.12688 10.9602 7.49998 10.5 7.49998C10.0397 7.49998 9.66663 7.12688 9.66663 6.66665C9.66663 6.20641 10.0397 5.83331 10.5 5.83331Z"/>
<path fill-rule="evenodd" clip-rule="evenodd" d="M2.25 10C2.25 5.44365 5.94365 1.75 10.5 1.75C15.0563 1.75 18.75 5.44365 18.75 10C18.75 14.5563 15.0563 18.25 10.5 18.25C5.94365 18.25 2.25 14.5563 2.25 10ZM10.5 3.25C6.77208 3.25 3.75 6.27208 3.75 10C3.75 13.7279 6.77208 16.75 10.5 16.75C14.2279 16.75 17.25 13.7279 17.25 10C17.25 6.27208 14.2279 3.25 10.5 3.25Z" />
</svg>
