<svg width="150" height="22" viewBox="0 0 150 22" fill="none" xmlns="http://www.w3.org/2000/svg">
<mask id="mask0_1_383" style="mask-type:luminance" maskUnits="userSpaceOnUse" x="0" y="0" width="150" height="22">
<path d="M150 0H0V22H150V0Z" fill="white"/>
</mask>
<g mask="url(#mask0_1_383)">
<path d="M11.1467 22.0129H5.26281V4.83242H-0.0550537V-0.0396569H16.4496V4.83242H11.1467V22.0129ZM31.2724 22.0129H18.3426V-0.0396569H31.2724V4.74192H24.2266V8.2112H30.751V12.9927H24.2266V17.1559H31.2724V22.0129ZM53.4834 22.0129H46.676L42.4306 15.1196L38.23 22.0129H31.5715L38.796 10.7302L32.0035 -0.0396569H38.5279L42.4604 6.77823L46.244 -0.0396569H52.9621L46.0653 11.1978L53.4834 22.0129ZM75.4561 22.0129H67.7401L59.7856 6.47655H59.6516C59.7012 6.94918 59.7459 7.51734 59.7856 8.18103C59.8254 8.84472 59.8601 9.52353 59.8899 10.2174C59.9197 10.9012 59.9346 11.5196 59.9346 12.0727V22.0129H54.721V-0.0396569H62.4073L70.332 15.2855H70.4213C70.3915 14.8028 70.3618 14.2447 70.332 13.6112C70.3022 12.9676 70.2724 12.319 70.2426 11.6654C70.2227 11.0117 70.2128 10.4335 70.2128 9.93071V-0.0396569H75.4561V22.0129ZM99.3204 10.9565C99.3204 12.6559 99.1168 14.2045 98.7103 15.6023C98.3129 16.99 97.6874 18.1867 96.8328 19.1922C95.9792 20.1978 94.882 20.9721 93.5413 21.5151C92.2006 22.0481 90.5965 22.3146 88.7296 22.3146C86.9025 22.3146 85.3185 22.0481 83.9779 21.5151C82.6472 20.9721 81.5498 20.2029 80.6859 19.2073C79.8219 18.2017 79.1813 17 78.7643 15.6023C78.3472 14.2045 78.1387 12.6459 78.1387 10.9263C78.1387 8.63354 78.5111 6.64248 79.2558 4.95309C80.0105 3.25364 81.1724 1.94135 82.7415 1.01621C84.3106 0.0810137 86.3165 -0.386585 88.7595 -0.386585C91.242 -0.386585 93.258 0.0810137 94.8069 1.01621C96.3666 1.95141 97.5081 3.26873 98.2332 4.96817C98.9583 6.66761 99.3204 8.66371 99.3204 10.9565ZM84.3354 10.9565C84.3354 12.2838 84.4843 13.4251 84.7822 14.3805C85.0801 15.3357 85.5519 16.0699 86.1974 16.5827C86.8428 17.0956 87.687 17.3519 88.7296 17.3519C89.8121 17.3519 90.6708 17.0956 91.3063 16.5827C91.9526 16.0699 92.4143 15.3357 92.6922 14.3805C92.9801 13.4251 93.124 12.2838 93.124 10.9565C93.124 8.96539 92.7963 7.39164 92.1409 6.23521C91.4855 5.07878 90.3583 4.50058 88.7595 4.50058C87.6969 4.50058 86.8379 4.76203 86.1824 5.28493C85.537 5.80783 85.0653 6.55198 84.7674 7.51734C84.4794 8.48271 84.3354 9.62903 84.3354 10.9565ZM120.846 -0.0396569L113.711 22.0129H106.785L99.6798 -0.0396569H106.294L109.257 11.1375C109.367 11.5598 109.491 12.1028 109.63 12.7665C109.779 13.4202 109.913 14.0738 110.032 14.7274C110.161 15.381 110.24 15.914 110.27 16.3263C110.31 15.914 110.384 15.3861 110.494 14.7425C110.603 14.0989 110.722 13.4553 110.852 12.8118C110.99 12.1581 111.119 11.6201 111.239 11.1978L114.263 -0.0396569H120.846ZM121.995 22.0129V-0.0396569H127.908V22.0129H121.995ZM150.015 22.0129H143.372L139.066 13.5811L137.324 14.6369V22.0129H131.41V-0.0396569H137.324V9.53856C137.572 9.05589 137.855 8.57321 138.173 8.09053C138.501 7.60784 138.818 7.1503 139.126 6.71789L143.699 -0.0396569H150.135L143.268 9.84023L150.015 22.0129Z" fill="white"/>
</g>
</svg>
